<?xml version="1.0" encoding="UTF-8"?>
<svg width="7px" height="12px" viewBox="0 0 7 12" version="1.1" xmlns="http://www.w3.org/2000/svg" xmlns:xlink="http://www.w3.org/1999/xlink">
    <!-- Generator: Sketch 58 (84663) - https://sketch.com -->
    <title>Fill 1</title>
    <desc>Created with Sketch.</desc>
    <g id="Page-1" stroke="none" stroke-width="1" fill="none" fill-rule="evenodd">
        <g id="Profile" transform="translate(-346.000000, -280.000000)" fill="#7F7F7F">
            <g id="Group-6" transform="translate(0.000000, 259.000000)">
                <path d="M351.996761,22.338032 L351.66197,22.0034072 C351.556933,21.8981207 351.416523,21.8401634 351.266897,21.8401634 C351.117271,21.8401634 350.977027,21.8981207 350.871907,22.0034072 L346.322753,26.5524783 C346.217217,26.6579308 346.159426,26.7988385 346.159837,26.9486309 C346.159426,27.0990875 346.217134,27.2398292 346.322753,27.3453648 L350.867672,31.8900351 C350.972792,31.9953215 351.113036,32.0532789 351.262745,32.0532789 C351.412372,32.0532789 351.552615,31.9953215 351.657819,31.8900351 L351.992526,31.5554103 C352.210323,31.3376135 352.210323,30.9830606 351.992526,30.7653469 L348.17606,26.94888 L351.996761,23.1280123 C352.101965,23.023058 352.159837,22.8827315 352.159837,22.7331052 C352.159837,22.5833959 352.101965,22.4431524 351.996761,22.338032 Z" id="Fill-1" transform="translate(349.159838, 26.946721) rotate(-180.000000) translate(-349.159838, -26.946721) "></path>
            </g>
        </g>
    </g>
</svg>