<?xml version="1.0" encoding="UTF-8"?>
<svg xmlns="http://www.w3.org/2000/svg" xmlns:xlink="http://www.w3.org/1999/xlink" width="24px" height="24px" viewBox="0 0 24 24" version="1.1">
    <title>Group 13</title>
    <defs>
        <polygon id="path-1" points="0.000299679395 0.734535877 22.9669091 0.734535877 22.9669091 14.1818182 0.000299679395 14.1818182"/>
        <polygon id="path-3" points="0.743345455 0.802909091 12.4804364 0.802909091 12.4804364 11.2752 0.743345455 11.2752"/>
    </defs>
    <g id="Lịch-sử-đơn-hoàn-topup" stroke="none" stroke-width="1" fill="none" fill-rule="evenodd">
        <g id="Profile" transform="translate(-21.000000, -446.000000)">
            <g id="Group-13" transform="translate(21.000000, 446.000000)">
                <g id="Group-3" transform="translate(0.000000, 9.015491)">
                    <mask id="mask-2" fill="white">
                        <use xlink:href="#path-1"/>
                    </mask>
                    <g id="Clip-2"/>
                    <path d="M2.90007273,6.83443636 C3.04843636,6.68716364 3.27534545,6.65989091 3.45534545,6.77116364 C3.5328,6.81916364 3.31025455,6.61625455 7.34007273,10.6417091 C7.52007273,10.8206182 7.51134545,11.1064364 7.34334545,11.2733455 L5.4888,13.1006182 L1.08152727,8.65843636 L2.90007273,6.83443636 Z M8.52261818,3.85734545 C9.20989091,3.85734545 9.87534545,3.99589091 10.4982545,4.26861818 C10.5549818,4.29370909 10.6160727,4.3068 10.6782545,4.3068 L15.7728,4.3068 C16.2582545,4.3068 16.6695273,4.7028 16.6695273,5.20352727 C16.6695273,5.69770909 16.2669818,6.10134545 15.7728,6.10134545 L12.1117091,6.10134545 C11.8651636,6.10134545 11.6633455,6.30207273 11.6633455,6.54970909 C11.6633455,6.79734545 11.8651636,6.99807273 12.1117091,6.99807273 L15.7728,6.99807273 C16.7611636,6.99807273 17.5662545,6.19298182 17.5662545,5.20352727 C17.5662545,5.12498182 17.5608,5.04643636 17.5509818,4.96898182 C20.1113455,2.33661818 20.4724364,1.9668 20.4877091,1.94825455 C20.8073455,1.5708 21.3757091,1.5228 21.7520727,1.84134545 C22.1306182,2.16098182 22.1786182,2.72825455 21.8578909,3.10789091 L17.8335273,7.9188 C17.2466182,8.48170909 16.4753455,8.79152727 15.6593455,8.79152727 L9.69534545,8.79152727 C9.11170909,8.79152727 8.55861818,9.01625455 8.13970909,9.42207273 L7.75789091,9.78861818 L4.24298182,6.2748 C5.06443636,4.73443636 6.60589091,3.85734545 8.52261818,3.85734545 L8.52261818,3.85734545 Z M5.16698182,14.0497091 C5.34043636,14.2242545 5.62407273,14.2264364 5.79970909,14.0529818 L7.97498182,11.9104364 C8.3448,11.5406182 8.45716364,10.9940727 8.29461818,10.5173455 L8.76261818,10.0668 C9.01352727,9.82352727 9.34516364,9.68934545 9.69534545,9.68934545 L15.6593455,9.68934545 C16.7175273,9.68934545 17.7178909,9.28352727 18.4760727,8.54607273 C18.5077091,8.51552727 18.2393455,8.8308 22.5451636,3.68498182 C23.1833455,2.93007273 23.0873455,1.79552727 22.3313455,1.15625455 C21.5797091,0.522436364 20.4549818,0.614072727 19.8146182,1.35698182 L17.1669818,4.07661818 C16.8320727,3.66534545 16.3237091,3.40898182 15.7728,3.40898182 L10.7698909,3.40898182 C10.0586182,3.11116364 9.30261818,2.96061818 8.52261818,2.96061818 C6.36370909,2.96061818 4.47643636,3.9588 3.46516364,5.82861818 C3.03861818,5.74789091 2.58916364,5.87770909 2.26516364,6.20061818 L0.131345455,8.34098182 C-0.0432,8.51661818 -0.0432,8.79807273 0.130254545,8.97370909 L5.16698182,14.0497091 Z" id="Fill-1" fill="#F78A73" mask="url(#mask-2)"/>
                </g>
                <g id="Group-6" transform="translate(6.545455, 0.288218)">
                    <mask id="mask-4" fill="white">
                        <use xlink:href="#path-3"/>
                    </mask>
                    <g id="Clip-5"/>
                    <path d="M11.4484364,0.802472727 L3.14989091,0.802472727 C2.58043636,0.802472727 2.11789091,1.27265455 2.11789091,1.84974545 L2.11789091,3.5952 L1.77425455,3.5952 C1.2048,3.5952 0.743345455,4.06538182 0.743345455,4.64247273 L0.743345455,10.2279273 C0.743345455,10.8050182 1.2048,11.2752 1.77425455,11.2752 L10.0728,11.2752 C10.6422545,11.2752 11.1058909,10.8050182 11.1058909,10.2279273 L11.1058909,8.48247273 L11.4484364,8.48247273 C12.0168,8.48247273 12.4804364,8.01338182 12.4804364,7.4352 L12.4804364,1.84974545 C12.4804364,1.27265455 12.0168,0.802472727 11.4484364,0.802472727 L11.4484364,0.802472727 Z M10.4175273,10.2279273 C10.4175273,10.4210182 10.2626182,10.5770182 10.0728,10.5770182 L1.77425455,10.5770182 C1.58443636,10.5770182 1.42952727,10.4210182 1.42952727,10.2279273 L1.42952727,7.08610909 L10.4175273,7.08610909 L10.4175273,10.2279273 Z M1.42952727,6.38792727 L10.4164364,6.38792727 L10.4164364,5.68974545 L1.42952727,5.68974545 L1.42952727,6.38792727 Z M10.4175273,4.99156364 L1.42952727,4.99156364 L1.42952727,4.64247273 C1.42952727,4.45047273 1.58443636,4.29338182 1.77425455,4.29338182 L10.0728,4.29338182 C10.2626182,4.29338182 10.4175273,4.45047273 10.4175273,4.64247273 L10.4175273,4.99156364 Z M11.7920727,7.4352 C11.7920727,7.62829091 11.6382545,7.78429091 11.4484364,7.78429091 L11.1058909,7.78429091 L11.1058909,4.64247273 C11.1058909,4.06538182 10.6422545,3.5952 10.0728,3.5952 L2.80625455,3.5952 L2.80625455,1.84974545 C2.80625455,1.65774545 2.96007273,1.50065455 3.14989091,1.50065455 L11.4484364,1.50065455 C11.6382545,1.50065455 11.7920727,1.65774545 11.7920727,1.84974545 L11.7920727,7.4352 Z" id="Fill-4" fill="#F78A73" mask="url(#mask-4)"/>
                </g>
                <path d="M10.9136727,8.19065455 C10.6551273,8.19065455 10.4184,8.2932 10.2394909,8.46010909 C10.0605818,8.2932 9.82385455,8.19065455 9.56530909,8.19065455 C9.00676364,8.19065455 8.55294545,8.66410909 8.55294545,9.24447273 C8.55294545,9.82592727 9.00676364,10.2993818 9.56530909,10.2993818 C9.82385455,10.2993818 10.0605818,10.1968364 10.2394909,10.0299273 C10.4184,10.1968364 10.6551273,10.2993818 10.9136727,10.2993818 C11.4722182,10.2993818 11.9260364,9.82592727 11.9260364,9.24447273 C11.9260364,8.66410909 11.4722182,8.19065455 10.9136727,8.19065455 M9.56530909,9.59683636 C9.37876364,9.59683636 9.22712727,9.43865455 9.22712727,9.24447273 C9.22712727,9.05138182 9.37876364,8.8932 9.56530909,8.8932 C9.75185455,8.8932 9.9024,9.05138182 9.9024,9.24447273 C9.9024,9.43865455 9.75185455,9.59683636 9.56530909,9.59683636 M10.9136727,9.59683636 C10.7282182,9.59683636 10.5765818,9.43865455 10.5765818,9.24447273 C10.5765818,9.05138182 10.7282182,8.8932 10.9136727,8.8932 C11.1002182,8.8932 11.2518545,9.05138182 11.2518545,9.24447273 C11.2518545,9.43865455 11.1002182,9.59683636 10.9136727,9.59683636" id="Fill-7" fill="#F78A73"/>
                <path d="M13.7176364,8.61250909 L13.086,8.61250909 C12.9114545,8.61250909 12.7696364,8.80123636 12.7696364,9.0336 C12.7696364,9.26705455 12.9114545,9.45578182 13.086,9.45578182 L13.7176364,9.45578182 C13.8921818,9.45578182 14.034,9.26705455 14.034,9.0336 C14.034,8.80123636 13.8921818,8.61250909 13.7176364,8.61250909" id="Fill-9" fill="#F78A73"/>
                <path d="M15.8259273,8.61250909 L15.1932,8.61250909 C15.0186545,8.61250909 14.8779273,8.80123636 14.8779273,9.0336 C14.8779273,9.26705455 15.0186545,9.45578182 15.1932,9.45578182 L15.8259273,9.45578182 C16.0004727,9.45578182 16.1422909,9.26705455 16.1422909,9.0336 C16.1422909,8.80123636 16.0004727,8.61250909 15.8259273,8.61250909" id="Fill-11" fill="#F78A73"/>
            </g>
        </g>
    </g>
</svg>
