<svg width="22" height="22" viewBox="0 0 22 22" fill="none" xmlns="http://www.w3.org/2000/svg">
<path fill-rule="evenodd" clip-rule="evenodd" d="M15.5823 21.9914L15.5699 21.9908C13.9777 21.8871 12.5479 21.2917 11.479 20.7821C8.67354 19.4245 6.21991 17.4985 4.17672 15.0629C2.49887 13.0423 1.36677 11.1525 0.613543 9.1183C0.126425 7.80128 -0.0630097 6.70977 0.0181766 5.68141C0.0903422 4.85602 0.424108 4.14338 1.01045 3.55704L2.61163 1.96037C3.07168 1.51836 3.60391 1.28833 4.15417 1.28833C4.70894 1.28833 5.23214 1.51836 5.67416 1.96037C5.93183 2.19822 6.18949 2.46046 6.44104 2.71646C6.4757 2.75174 6.51024 2.78689 6.54465 2.82185C6.61627 2.89346 6.68788 2.96619 6.76005 3.03947C6.83332 3.11388 6.90717 3.18887 6.98216 3.26386L8.25859 4.54029C9.2238 5.501 9.2238 6.69624 8.25859 7.66146C8.19036 7.72969 8.12327 7.79792 8.05675 7.86557C7.99136 7.93208 7.92652 7.99803 7.86168 8.06288C7.50536 8.42822 7.13551 8.80258 6.7386 9.1634C7.02275 9.82191 7.42417 10.4624 8.03307 11.2291C9.24185 12.713 10.5047 13.8677 11.8984 14.7517C12.0383 14.8374 12.1961 14.9186 12.3675 15.0043C12.39 15.0155 12.4126 15.0268 12.4352 15.038C12.5491 15.0947 12.6651 15.1523 12.778 15.2163L14.2979 13.6963C14.7535 13.2408 15.2857 13.0017 15.8405 13.0017C16.3998 13.0017 16.9275 13.2453 17.3695 13.7053L19.9404 16.2762C20.8695 17.2054 20.874 18.4277 19.9494 19.3929C19.7555 19.6004 19.548 19.7988 19.345 19.9928C19.0473 20.2769 18.7677 20.5475 18.5196 20.8452L18.5016 20.8633C17.807 21.6165 16.923 21.9999 15.863 21.9999C15.768 21.9999 15.677 21.9957 15.5823 21.9914ZM1.65547 8.73498C2.3636 10.6474 3.43255 12.4335 5.02922 14.3549C6.96867 16.6732 9.30052 18.4999 11.9706 19.7853C12.9494 20.2499 14.2484 20.7957 15.6511 20.8859C15.7233 20.8904 15.7999 20.8949 15.8721 20.8949C16.6253 20.8949 17.2027 20.6513 17.6898 20.1281C17.9739 19.7899 18.2851 19.4877 18.5873 19.199C18.6222 19.1649 18.6568 19.1313 18.6911 19.0979C18.852 18.9413 19.0069 18.7906 19.1556 18.6307C19.512 18.2563 19.8006 17.688 19.1692 17.0566L16.5892 14.4767C16.4224 14.3053 16.1653 14.1068 15.8495 14.1068C15.5925 14.1068 15.3309 14.2331 15.0873 14.4767L13.4861 16.0778C13.414 16.1545 13.1884 16.38 12.8321 16.38C12.6878 16.38 12.548 16.3439 12.4036 16.2718C12.3946 16.2673 12.3867 16.2628 12.3788 16.2582C12.3709 16.2537 12.3631 16.2492 12.354 16.2447C12.2142 16.159 12.0563 16.0778 11.885 15.9921C11.6955 15.8974 11.5016 15.7982 11.3166 15.6809C9.81921 14.7292 8.4661 13.4979 7.18065 11.9148C6.46802 11.0127 6.00345 10.2595 5.6742 9.46566C5.67194 9.45889 5.66969 9.45326 5.66743 9.44762C5.66518 9.44198 5.66292 9.43634 5.66067 9.42957C5.57046 9.16797 5.51634 8.81617 5.88167 8.45083L5.90423 8.42828C6.28123 8.0927 6.62399 7.7457 6.98493 7.3803C7.01694 7.3479 7.0491 7.31535 7.08143 7.28265C7.21223 7.14734 7.34754 7.01203 7.48285 6.87672C8.00605 6.35352 8.00605 5.83934 7.48285 5.31613L6.20642 4.03971C6.05307 3.89086 5.90423 3.73751 5.75989 3.58867L5.75191 3.58056C5.46616 3.29034 5.19348 3.0134 4.91195 2.74974C4.66839 2.5107 4.41581 2.38892 4.15872 2.38892C3.89712 2.38892 3.63101 2.5107 3.38745 2.74523L1.7953 4.33739C1.38936 4.73881 1.17287 5.20789 1.12325 5.77168C1.0556 6.64218 1.21797 7.55778 1.65547 8.73498Z" fill="#FF9D09"/>
<path d="M12.079 4.02626C11.7768 3.97665 11.4926 4.17962 11.443 4.4773C11.3934 4.77949 11.5964 5.06365 11.894 5.11326C13.1344 5.32525 14.262 5.91159 15.1641 6.80915C16.0616 7.70671 16.648 8.83881 16.8599 10.0792C16.905 10.3498 17.1396 10.5392 17.4057 10.5392C17.4373 10.5392 17.4688 10.5347 17.5004 10.5302C17.8026 10.4806 18.0056 10.1919 17.9515 9.89423C17.7034 8.42837 17.0088 7.08879 15.9489 6.02886C14.8799 4.96442 13.5448 4.27433 12.079 4.02626Z" fill="#FF9D09"/>
<path d="M21.42 10.3497C21.4516 10.3497 21.4832 10.3452 21.5148 10.3407C21.817 10.2911 22.0199 10.0024 21.9658 9.70472C21.5554 7.27815 20.4097 5.07259 18.6552 3.31806C16.8962 1.56354 14.6906 0.417908 12.264 0.00746608C11.9618 -0.0421478 11.6777 0.160818 11.6281 0.458501C11.5785 0.760695 11.7814 1.04485 12.0791 1.09446C14.2756 1.46882 16.2782 2.5062 17.8704 4.09835C19.4626 5.69051 20.4999 7.6931 20.8743 9.88965C20.9194 10.1603 21.1539 10.3497 21.42 10.3497Z" fill="#FF9D09"/>
</svg>
