<svg width="11" height="12" viewBox="0 0 11 12" fill="none" xmlns="http://www.w3.org/2000/svg">
<path opacity="0.4" fill-rule="evenodd" clip-rule="evenodd" d="M5.49991 0.5C2.46253 0.5 0 2.96253 0 5.99991C0 9.03733 2.46253 11.5 5.49991 11.5C8.53733 11.5 11 9.03733 11 5.99991C11 2.96253 8.53733 0.5 5.49991 0.5ZM7.87548 7.04625H5.54367C5.53579 7.04625 5.52846 7.04428 5.52057 7.04396C5.51287 7.04428 5.50554 7.04625 5.49766 7.04625C5.28746 7.04625 5.11719 6.87584 5.11719 6.66583V2.78281C5.11719 2.57262 5.28746 2.40234 5.49766 2.40234C5.70767 2.40234 5.87794 2.57262 5.87794 2.78281V6.28555H7.8753C8.08531 6.28555 8.25559 6.45577 8.25559 6.66583C8.25559 6.87584 8.08549 7.04625 7.87548 7.04625Z" fill="#040E20"/>
</svg>
