<?xml version="1.0" encoding="UTF-8"?>
<svg width="17px" height="22px" viewBox="0 0 17 22" version="1.1" xmlns="http://www.w3.org/2000/svg" xmlns:xlink="http://www.w3.org/1999/xlink">
    <!-- Generator: Sketch 58 (84663) - https://sketch.com -->
    <title>notification (2)</title>
    <desc>Created with Sketch.</desc>
    <g id="Page-1" stroke="none" stroke-width="1" fill="none" fill-rule="evenodd">
        <g id="Home" transform="translate(-329.000000, -66.000000)" fill="#FFFFFF">
            <g id="Group-8">
                <g id="Group" transform="translate(327.000000, 65.000000)">
                    <path d="M17.3306268,16.8517536 L17.3306268,10.2297235 C17.3306268,7.15302029 15.2857539,4.54532701 12.4840482,3.69331096 C12.4847346,3.68091441 12.4858927,3.66868944 12.4858927,3.65612132 L12.4858927,3.10115059 C12.4858927,1.9426953 11.5950141,1 10.5,1 C9.40502876,1 8.51410729,1.9426953 8.51410729,3.10115059 L8.51410729,3.65612132 C8.51410729,3.66868944 8.51530834,3.68091441 8.51595176,3.69331096 C5.71424606,4.54532701 3.66937323,7.15302029 3.66937323,10.2297235 L3.66937323,16.8517536 C2.72586294,16.9936491 2,17.8098481 2,18.7923925 L2,19.8183463 C2,20.2583594 2.35808438,20.6162293 2.7980546,20.6162293 L7.58132065,20.6162293 C7.87656439,21.9562147 9.07276696,22.9620509 10.5,22.9620509 C11.9272759,22.9620509 13.1234356,21.9562147 13.4186794,20.6162293 L18.2019454,20.6162293 C18.6421301,20.6162293 19,20.2583594 19,19.8183463 L19,18.7923925 C19,17.8098481 18.2743086,16.9936491 17.3306268,16.8517536 Z M9.80094621,3.10115059 C9.80094621,2.65230117 10.1146346,2.28683892 10.5,2.28683892 C10.8854083,2.28683892 11.1990538,2.65230117 11.1990538,3.10115059 L11.1990538,3.43461344 C10.9691815,3.41115008 10.7359205,3.39909669 10.5,3.39909669 C10.2640795,3.39909669 10.0308614,3.41115008 9.80094621,3.43461344 L9.80094621,3.10115059 Z M4.95621215,10.2297235 C4.95621215,7.17279471 7.44311415,4.68593561 10.5,4.68593561 C13.5569287,4.68593561 16.0437878,7.17279471 16.0437878,10.2297235 L16.0437878,16.8297916 L4.95621215,16.8297916 L4.95621215,10.2297235 Z M10.5,21.6752119 C9.78889281,21.6752119 9.17833064,21.2368717 8.92396548,20.6162293 L12.0760345,20.6162293 C11.8217123,21.2368717 11.2111072,21.6752119 10.5,21.6752119 Z M17.7131611,19.3293904 L3.28683892,19.3293904 L3.28683892,18.7923925 C3.28683892,18.419724 3.58993238,18.1164589 3.96260093,18.1164589 L17.0373991,18.1164589 C17.4100676,18.1164589 17.7131611,18.419724 17.7131611,18.7923925 L17.7131611,19.3293904 Z" id="notification-(2)"></path>
                </g>
            </g>
        </g>
    </g>
</svg>