<?xml version="1.0" encoding="UTF-8"?>
<svg width="24px" height="25px" viewBox="0 0 24 25" version="1.1" xmlns="http://www.w3.org/2000/svg" xmlns:xlink="http://www.w3.org/1999/xlink">
    <!-- Generator: Sketch 58 (84663) - https://sketch.com -->
    <title>Combined Shape</title>
    <desc>Created with Sketch.</desc>
    <g id="Page-1" stroke="none" stroke-width="1" fill="none" fill-rule="evenodd">
        <g id="Home" transform="translate(-176.000000, -1025.000000)" fill="#FFFFFF">
            <g id="Group-24" transform="translate(0.000000, 977.000000)">
                <g id="tabbar">
                    <g id="tb/nhiemvu">
                        <g transform="translate(150.000000, 35.000000)">
                            <g id="Group-25" transform="translate(13.000000, 0.000000)">
                                <path d="M36.9218397,31.1735602 C36.9767901,31.3442945 36.99494,31.533429 36.9955659,31.7143022 C37.0009483,33.383217 37.0011986,35.0521318 36.9975686,36.7210467 C36.9958162,37.5451774 36.7428441,37.7976488 35.9164603,37.7995264 C34.2643185,37.8031564 32.6120515,37.8009033 30.9597845,37.8000271 C30.8431244,37.8000271 30.7249623,37.8031564 30.6101798,37.7866337 C30.1270169,37.716162 29.8573969,37.4205063 29.8959498,36.9864107 C29.9370062,36.5234005 30.2281556,36.3093568 30.668635,36.3048506 C31.7033046,36.2944614 32.7380994,36.2990927 33.772769,36.2980913 C34.3205206,36.2975907 34.8682721,36.2979662 35.4963839,36.2979662 L35.4965121,32.7361632 C35.4967044,32.4456256 35.4969847,32.1557579 35.4973853,31.8658851 C35.4977608,31.6659859 35.4856191,31.460579 35.5261748,31.2675642 C35.5990247,30.9209637 35.8288401,30.7175596 36.1897102,30.6955293 C36.5470755,30.6737495 36.8106872,30.8283366 36.9218397,31.1735602 Z M13.8016677,30.6895086 C14.2101031,30.7090354 14.4878592,30.9855398 14.4973722,31.4495514 C14.5155221,32.3325129 14.5057587,33.2163505 14.5067601,34.0998127 C14.5075111,34.8117896 14.5068853,35.5237664 14.5068853,36.298204 L18.0773281,36.2983642 C18.3679128,36.2985244 18.6577555,36.2987548 18.9476032,36.2990802 C19.1306042,36.2993305 19.3168598,36.2920706 19.4961057,36.3217363 C19.8707448,36.3838215 20.0875422,36.6138871 20.10782,36.997914 C20.1278475,37.3795627 19.9476002,37.639294 19.5767163,37.7398069 C19.4184993,37.7826157 19.248516,37.7976363 19.0836648,37.7980118 C17.4168779,37.8022676 15.7499658,37.8036445 14.0830538,37.7993887 C13.2585475,37.7973859 13.0075781,37.5442887 13.0054502,36.7196572 L13.0018046,34.2443704 L13.0014447,31.7689897 C13.0014447,31.6360573 12.9989413,31.5007466 13.0210967,31.3704429 C13.098578,30.9158191 13.3863478,30.6697314 13.8016677,30.6895086 Z M20.2169197,27.483998 C20.6759245,27.5155412 20.8940989,27.7904184 20.9232639,28.2347781 C20.925517,28.2680738 20.9285211,28.3013694 20.9286463,28.3346651 L20.9288966,29.4341737 L20.9243904,29.4341737 C20.9243904,29.8174496 20.9339035,30.2007254 20.9217618,30.5836258 C20.9077426,31.0281107 20.6829341,31.3062423 20.2269335,31.3461721 C19.8164953,31.3822215 19.4804092,31.1228657 19.4596307,30.6669902 C19.4217037,29.8364757 19.4213281,29.0019557 19.4580035,28.1714412 C19.4785316,27.7069288 19.800223,27.4553336 20.2169197,27.483998 Z M23.3764798,27.4855376 C23.8039413,27.4779021 24.0837001,27.705214 24.1169958,28.1349286 C24.1502915,28.5648935 24.124381,28.9997401 24.124381,29.4324588 L24.1326423,29.4324588 C24.1326423,29.8322574 24.1554236,30.2336832 24.1267592,30.6313538 C24.0935887,31.092862 23.801563,31.3638588 23.3892473,31.3478368 C22.9609096,31.3313142 22.6795235,31.0948648 22.6671315,30.6706577 C22.6425979,29.8226192 22.6472292,28.9725779 22.6787725,28.1247897 C22.6937931,27.7202346 22.9720499,27.4929227 23.3764798,27.4855376 Z M26.5932308,27.4769633 C27.0067983,27.4712054 27.3174745,27.7256796 27.3357496,28.1893157 C27.3679188,29.0041837 27.3680439,29.8221811 27.3366258,30.6371743 C27.3188514,31.0995587 27.005171,31.3679269 26.5946077,31.3473987 C26.1381064,31.3244923 25.8940215,31.0576262 25.8728675,30.6118896 C25.8530903,30.1963194 25.8686116,29.7789968 25.8686116,29.3624253 L25.8658579,29.3624253 C25.8658579,28.9791494 25.84558,28.5944966 25.8711151,28.2129732 C25.9022828,27.7480853 26.182292,27.482596 26.5932308,27.4769633 Z M30.5424118,28.1595624 C30.5785865,29.0067247 30.5719524,29.8576422 30.5365287,30.7049297 C30.5187544,31.131515 30.218968,31.3628324 29.79038,31.3445573 C29.3636695,31.3262823 29.1113233,31.0756884 29.0896686,30.6467249 C29.0687649,30.231405 29.0851624,29.8140825 29.0851624,29.3975109 L29.0831597,29.3975109 L29.0777819,28.5975244 C29.0783753,28.4642582 29.0809066,28.3310894 29.0871651,28.1981153 C29.1071926,27.7731572 29.34214,27.5191837 29.7739825,27.4842608 C30.1908044,27.4503393 30.5227599,27.6999317 30.5424118,28.1595624 Z M32.6093102,24.2433266 C33.4111604,24.2434518 33.7837967,24.4973001 33.7657719,25.0233969 C33.7484982,25.5283397 33.4047766,25.745012 32.6109374,25.7452623 C30.0747076,25.7461385 27.5386029,25.7456378 25.0023731,25.7460134 C22.4661433,25.7463889 19.9300386,25.7470147 17.3938088,25.7451372 C17.2108077,25.745012 17.0256787,25.7410065 16.8453062,25.7140946 C16.4555214,25.6560149 16.2578752,25.3911515 16.2454832,25.0245234 C16.2330912,24.6582709 16.4123371,24.3771352 16.7967396,24.2961491 C16.9903803,24.2553431 17.1934088,24.2452042 17.3921815,24.245079 C22.4646412,24.2423252 27.5369757,24.2425756 32.6093102,24.2433266 Z M27.3440861,19.392133 C27.3726252,19.790054 27.3499691,20.1917301 27.3499691,20.591779 L27.354225,20.591779 C27.354225,20.97518 27.3745028,21.359958 27.3493433,21.741857 C27.3159224,22.2460487 27.0411704,22.5156687 26.6105796,22.5178091 C26.1751072,22.5199245 25.8868366,22.2511808 25.8716909,21.7486162 C25.8481586,20.9657922 25.8560444,20.1815912 25.8691874,19.3981413 C25.8766977,18.9485244 26.1321733,18.6825344 26.5770336,18.6416033 C26.9823397,18.6043021 27.3100393,18.91986 27.3440861,19.392133 Z M29.7967012,18.6489258 C30.2150251,18.6352821 30.5229476,18.8748608 30.5379682,19.3024475 C30.5682598,20.1668835 30.568385,21.0343237 30.5324607,21.8983842 C30.515938,22.2988086 30.2265409,22.5227409 29.8176048,22.5159816 C29.3883909,22.508972 29.1237779,22.2725226 29.0948632,21.8440597 C29.0670751,21.4292405 29.088855,21.0111669 29.088855,20.594345 L29.0862264,20.594345 L29.0807744,19.7605899 C29.0813864,19.6217049 29.0839733,19.4829034 29.090357,19.3442548 C29.1103845,18.9087823 29.3815065,18.6625695 29.7967012,18.6489258 Z M23.4001122,18.6484283 C23.7895215,18.6498145 24.082173,18.8669875 24.1137163,19.2773005 C24.1478882,19.7241636 24.121477,20.1756581 24.121477,20.6252749 L24.1286118,20.6254001 C24.1286118,21.0251987 24.1485141,21.4263741 24.1232294,21.8246706 C24.0963175,22.2490028 23.8494788,22.5029762 23.416009,22.5133655 C22.9860441,22.5237548 22.6888864,22.2924374 22.6744916,21.8666031 C22.6450763,21.0021671 22.6512097,20.1351024 22.684255,19.2707915 C22.7000267,18.8587262 23.0112036,18.6468104 23.4001122,18.6484283 Z M20.2324661,18.6500899 C20.622376,18.6728712 20.8882408,18.9076933 20.9092697,19.3202594 C20.9304237,19.7355792 20.913901,20.1529018 20.913901,20.5694734 L20.9177813,20.5694734 C20.9177813,20.9860449 20.9360564,21.4036179 20.9127745,21.8188125 C20.889117,22.2438958 20.6440307,22.4972434 20.2114372,22.5133905 C19.7777171,22.5295377 19.4836887,22.2928379 19.4674164,21.8707588 C19.4342459,21.0070738 19.4354976,20.1400091 19.4726736,19.2764493 C19.491199,18.8461088 19.8167707,18.6256814 20.2324661,18.6500899 Z M14.1173508,13 L19.1179619,13.0025036 C19.5416682,13.0023785 19.9333306,13.0743522 20.0824102,13.5406169 C20.2495144,14.0633341 19.8860157,14.4963032 19.2651639,14.5010597 C17.8816406,14.5118245 16.4981173,14.50494 15.1145941,14.5051904 L14.5068853,14.5051904 L14.5067601,18.7838109 C14.5066349,18.9670623 14.5095139,19.1505641 14.5026294,19.3336903 C14.4857312,19.7767983 14.2744413,20.0609381 13.8174393,20.1051238 C13.3868485,20.146806 13.0689123,19.8740567 13.0222232,19.3915197 C12.9854227,19.0114983 13.0055754,18.625719 13.0049495,18.2425683 C13.0026965,16.8756928 13.0028216,15.5089426 13.0014447,14.1420672 C13.0005685,13.249092 13.2430262,12.9997498 14.1173508,13 Z M35.9321318,13.0038805 C36.7464991,13.0060084 36.9960916,13.2616091 36.9977188,14.093876 C37.0008481,15.7442655 36.9989705,17.3945297 36.9982195,19.0449191 C36.9982195,19.1613288 37.0019747,19.279491 36.9852017,19.3941483 C36.9149803,19.8738064 36.6135668,20.1484332 36.1834766,20.1048734 C35.7271005,20.0588102 35.5070486,19.773669 35.5019165,19.3306862 L35.495345,18.055546 L35.4952824,14.5051904 L32.5834787,14.5052432 C32.2664695,14.5051904 31.9505438,14.5050965 31.6346104,14.50494 C31.2846302,14.5046897 30.9336486,14.5175824 30.5849201,14.4945508 C30.1857475,14.4682647 29.9355291,14.2433311 29.8959749,13.8376495 C29.853792,13.405807 30.0739691,13.1405681 30.485659,13.0400551 C30.6288554,13.0051322 30.7824412,13.0011267 30.9311452,13.0010016 C32.5981824,12.9996247 34.2652197,12.9993743 35.9321318,13.0038805 Z" id="Combined-Shape"></path>
                            </g>
                        </g>
                    </g>
                </g>
            </g>
        </g>
    </g>
</svg>