<?xml version="1.0" encoding="UTF-8"?>
<svg width="21px" height="24px" viewBox="0 0 21 24" version="1.1" xmlns="http://www.w3.org/2000/svg" xmlns:xlink="http://www.w3.org/1999/xlink">
    <!-- Generator: Sketch 58 (84663) - https://sketch.com -->
    <title>icon/24px/bell</title>
    <desc>Created with Sketch.</desc>
    <g id="Page-1" stroke="none" stroke-width="1" fill="none" fill-rule="evenodd">
        <g id="Home" transform="translate(-103.000000, -1023.000000)" fill="#4F4F4F">
            <g id="Group-24" transform="translate(0.000000, 977.000000)">
                <g id="tabbar">
                    <g id="tb/dathang">
                        <g transform="translate(75.000000, 40.000000)">
                            <g id="Group" transform="translate(22.000000, 6.000000)">
                                <g id="icon/24px/bell" transform="translate(4.000000, 0.000000)">
                                    <path d="M16,10.5 L21.8333333,10.5 L21.8333333,7 L16,7 L16,10.5 Z M16,22.1666667 L20.6666667,22.1666667 L20.6666667,11.6666667 L16,11.6666667 L16,22.1666667 Z M10.1666667,22.1666667 L14.8333333,22.1666667 L14.8333333,7 L10.1666667,7 L10.1666667,22.1666667 Z M6.99023438,4.43255859 C6.15451823,3.94994141 5.86708984,2.87779297 6.34970703,2.04207682 C6.66124349,1.50226562 7.24339193,1.16666667 7.86833333,1.16666667 C8.17285156,1.16666667 8.47422526,1.24792318 8.74023438,1.40154948 C9.98738281,2.12178385 11.8750586,4.43994141 11.8886849,5.23445964 C11.7692839,5.2888737 11.4776172,5.36940104 10.9444596,5.36940104 C9.5211263,5.36940104 7.65172526,4.81445964 6.99023438,4.43255859 Z M3.16666667,10.5 L9,10.5 L9,7 L3.16666667,7 L3.16666667,10.5 Z M4.33333333,22.1666667 L9,22.1666667 L9,11.6666667 L4.33333333,11.6666667 L4.33333333,22.1666667 Z M16.2597656,1.40154948 C16.5261849,1.24792318 16.8275586,1.16666667 17.1320768,1.16666667 C17.7570182,1.16666667 18.3387565,1.50226562 18.650293,2.04207682 C19.1329102,2.87779297 18.8454818,3.94994141 18.0097656,4.43255859 C17.3482747,4.81445964 15.4788737,5.36940104 14.0551758,5.36940104 C13.5220182,5.36940104 13.2303516,5.2888737 13.1109505,5.23445964 C13.1249414,4.43994141 15.0126172,2.12178385 16.2597656,1.40154948 Z M21.8333333,5.83333333 L17.7231576,5.83333333 C18.0700586,5.70577474 18.3695182,5.57238281 18.593099,5.44291016 C19.9880404,4.6375 20.4660091,2.8536849 19.660599,1.45869792 C19.1204232,0.523040365 18.1400586,0 17.1320768,0 C16.6373828,0 16.1357161,0.126009115 15.6764323,0.39124349 C14.8053516,0.894459635 13.3065495,2.34773437 12.5,3.70845052 C11.6934505,2.34809896 10.1946484,0.894459635 9.32356771,0.39124349 C8.86428385,0.126009115 8.36298177,0 7.86792318,0 C6.85994141,0 5.87953125,0.523040365 5.33940104,1.45869792 C4.53399089,2.8536849 5.01195964,4.6375 6.40690104,5.44291016 C6.63048177,5.57201823 6.92994141,5.70541016 7.27684245,5.83333333 L3.16666667,5.83333333 C2.52226563,5.83333333 2,6.35559896 2,7 L2,10.5 C2,11.144401 2.52226563,11.6666667 3.16666667,11.6666667 L3.16666667,22.1666667 C3.16666667,22.8110677 3.68893229,23.3333333 4.33333333,23.3333333 L20.6666667,23.3333333 C21.3110677,23.3333333 21.8333333,22.8110677 21.8333333,22.1666667 L21.8333333,11.6666667 C22.4777344,11.6666667 23,11.144401 23,10.5 L23,7 C23,6.35559896 22.4777344,5.83333333 21.8333333,5.83333333 L21.8333333,5.83333333 Z" id="gift-(5)"></path>
                                </g>
                            </g>
                        </g>
                    </g>
                </g>
            </g>
        </g>
    </g>
</svg>