<?xml version="1.0" encoding="UTF-8"?>
<svg width="24px" height="24px" viewBox="0 0 24 24" version="1.1" xmlns="http://www.w3.org/2000/svg" xmlns:xlink="http://www.w3.org/1999/xlink">
    <!-- Generator: Sketch 58 (84663) - https://sketch.com -->
    <title>icon/24px/bill</title>
    <desc>Created with Sketch.</desc>
    <g id="Page-1" stroke="none" stroke-width="1" fill="none" fill-rule="evenodd">
        <g id="Home" transform="translate(-251.000000, -1023.000000)" fill="#4F4F4F">
            <g id="Group-24" transform="translate(0.000000, 977.000000)">
                <g id="tabbar">
                    <g id="tb/cuahang">
                        <g transform="translate(225.000000, 40.000000)">
                            <g id="Group" transform="translate(15.000000, 6.000000)">
                                <g id="icon/24px/bill" transform="translate(11.000000, 0.000000)">
                                    <path d="M16.708989,2.36220472e-05 L16.733178,0.00885826772 C16.7658236,0.021 16.802863,0.0347952756 16.8442488,0.0401811024 C18.1145953,0.205393701 19.2475087,0.836291339 20.0342173,1.81665354 C20.8216346,2.79786614 21.1915087,4.04137795 21.0757134,5.31814961 C21.0518079,5.58191339 21.001115,5.83948819 20.9473984,6.1121811 C20.922926,6.23629134 20.8976504,6.36465354 20.8753039,6.49292126 L20.8753039,6.49292126 L20.8465323,6.65799213 L23.999981,5.42955118 L23.999981,20.959063 L22.3619339,21.5984173 C20.7180756,22.2398976 19.0742646,22.881378 17.4310677,23.5247008 C17.1620598,23.6300079 16.8917291,23.7436772 16.6303276,23.8535669 C16.5137291,23.9025591 16.3972252,23.9515512 16.2803906,24.0000236 L16.2803906,24.0000236 C16.2632409,23.9947795 16.2528472,23.9894409 16.2424535,23.9841496 L16.1806406,23.9534114 L16.1806406,23.9534114 L16.1139024,23.926748 L15.5642646,23.7464173 C13.0816346,22.9320709 10.514485,22.0899449 7.98673701,21.2699764 C7.84547717,21.2241496 7.65456378,21.2296299 7.50031181,21.2838661 C5.8531937,21.8632677 4.18552441,22.4614724 2.75166614,22.9767165 C2.10149291,23.2103858 1.44163465,23.4510945 0.803461417,23.6838661 C0.541445669,23.7794882 0.279335433,23.8751102 0.0172724409,23.9704961 C0.00867401575,23.9387953 0.00196535433,23.9088898 0.00196535433,23.8822441 C-1.89909594e-05,20.4194409 -1.89909594e-05,16.956685 -1.89909594e-05,13.4938819 L-1.89909594e-05,8.74665354 C0.00787086614,8.74211811 0.0153826772,8.73819685 0.0220913386,8.73550394 L0.0220913386,8.73550394 L0.791933858,8.42922047 C3.02147717,7.5422126 5.32689449,6.6249685 7.59692598,5.72940945 C7.67246929,5.69964567 7.79218583,5.7006378 7.88813858,5.73200787 C8.77727244,6.02203937 9.67939843,6.32293701 10.5519024,6.61391339 C10.8413669,6.71048031 11.1308787,6.80704724 11.4204378,6.90337795 C11.4668315,6.91882677 11.5141228,6.93224409 11.5688787,6.94783465 C11.5973197,6.95586614 11.6283591,6.96470079 11.6633197,6.97495276 L11.6633197,6.97495276 L11.841052,7.0269685 L11.741178,6.74643307 C11.7216189,6.69134646 11.706548,6.64892126 11.6911465,6.60659055 C11.218422,5.30874803 11.2833354,3.93068504 11.8739811,2.72624409 C12.4611307,1.52884252 13.5021543,0.639755906 14.8052882,0.222779528 C15.0132094,0.156307087 15.2338394,0.109677165 15.4471937,0.0646062992 C15.5442331,0.0441023622 15.6445323,0.0229370079 15.743178,2.36220472e-05 L15.743178,2.36220472e-05 L16.708989,2.36220472e-05 L16.708989,2.36220472e-05 Z M8.3676189,7.1965748 L8.3676189,20.0962913 L15.610989,22.4700709 L15.620485,22.3503543 C15.6222331,22.3282441 15.6240283,22.309252 15.6256819,22.2922913 C15.6288945,22.2591732 15.6316435,22.2305433 15.6316435,22.200874 L15.6316435,22.200874 L15.6310131,17.3080039 C15.6303613,15.8916969 15.6290362,14.4694724 15.6263433,13.0590472 C15.6261071,12.9501969 15.5832567,12.8215984 15.5087528,12.7062756 C14.5197449,11.1758031 13.7526898,9.99838583 13.0216346,8.88862205 C12.9444378,8.77131496 12.8067685,8.66567717 12.670989,8.61956693 C11.5852724,8.25054331 10.4789575,7.8830315 9.40906772,7.52761417 L9.40906772,7.52761417 L8.73527244,7.30372441 C8.68165039,7.28591339 8.62807559,7.27093701 8.57138268,7.25511024 C8.54468976,7.24764567 8.51709921,7.23994488 8.48842205,7.23162992 L8.48842205,7.23162992 L8.3676189,7.1965748 Z M22.7448945,7.24523622 L22.6231465,7.29077953 C22.5844535,7.30518898 22.548926,7.31832283 22.5153827,7.33070079 C22.4489102,7.35517323 22.3905638,7.37671654 22.3326898,7.39962992 C22.1524063,7.4709685 21.9720283,7.54211811 21.7915559,7.61322047 C21.2067685,7.84377165 20.6020913,8.08216535 20.0108315,8.32589764 C19.8604063,8.38792913 19.7160283,8.50367717 19.6340598,8.62797638 C18.7502173,9.96862205 17.8662331,11.3261339 17.006674,12.6628583 C16.918611,12.7998661 16.8657921,12.981378 16.8653669,13.1484331 C16.8593669,15.6019134 16.8596031,18.0963543 16.8598866,20.508685 L16.8599339,22.4135197 L16.9865953,22.3676929 C17.0281701,22.3525748 17.0648787,22.3395354 17.098422,22.3275827 C17.1637134,22.3043386 17.217052,22.2853465 17.2697764,22.264748 C17.6979969,22.0977402 18.1260756,21.9304488 18.5542016,21.7632047 C19.8314457,21.2641654 21.1521543,20.7481654 22.4534457,20.2470472 C22.6829575,20.1587008 22.7681386,20.0334567 22.7677619,19.7851417 C22.7644446,17.8671071 22.7631177,15.9297685 22.7625767,14.007822 L22.7620913,7.64718898 C22.7620913,7.59016535 22.758926,7.53276378 22.7556189,7.47205512 C22.7538709,7.44167717 22.7521228,7.40959843 22.750611,7.37506299 L22.750611,7.37506299 L22.7448945,7.24523622 Z M7.1316189,7.24070079 L6.89100472,7.33188189 C6.81928819,7.35885827 6.7559811,7.38266929 6.6931937,7.40756693 L6.6931937,7.40756693 L5.46583937,7.89574016 C4.17456378,8.40961417 2.83935118,8.9409685 1.52331969,9.45607087 C1.30571339,9.54125197 1.22492598,9.66158268 1.22520871,9.90002362 C1.22696648,11.2206283 1.22793044,12.5500847 1.22841811,13.8777768 L1.22818583,22.2024803 L1.3508315,22.1642126 C1.38470551,22.1536299 1.41550866,22.1443701 1.44428031,22.1357244 C1.50196535,22.1182913 1.55185512,22.103315 1.60188661,22.0853622 C2.04154016,21.9280866 2.4811937,21.7704803 2.9208,21.612874 C4.19686299,21.1554094 5.51639055,20.6823543 6.81664252,20.2244173 C7.0504063,20.1420236 7.1371937,20.0190472 7.13672318,19.7706378 C7.13332045,17.7594 7.13206141,15.7279398 7.13164963,13.7126372 L7.1316189,7.24070079 Z M16.4810362,1.23796063 C15.0365953,1.16444882 13.8812409,1.76884252 13.1417764,2.98585039 C12.3892724,4.22425984 12.384926,5.52796063 13.1292567,6.75592913 C13.7987055,7.86040157 14.5229102,8.96024409 15.2233039,10.0238504 C15.5265165,10.4842441 15.8400283,10.9603701 16.1464063,11.4326693 L16.1464063,11.4326693 L16.2062173,11.5248425 L16.2883748,11.4519449 C16.3002331,11.4414094 16.3103906,11.4332835 16.3189417,11.4263386 C16.3393984,11.4098976 16.358674,11.3943543 16.3745008,11.3700236 C16.6800756,10.8999921 16.9947685,10.4242913 17.299115,9.96432283 C17.9936031,8.91474803 18.7116661,7.82950394 19.3721858,6.7333937 C20.0313827,5.63969291 20.0608157,4.30207087 19.4509417,3.1553622 C18.8463591,2.0185748 17.7361228,1.3017874 16.4810362,1.23796063 Z M16.2396189,2.8347874 C16.7842961,2.8347874 17.296989,3.04837795 17.6833984,3.43629921 C18.0677291,3.82214173 18.2778236,4.33152756 18.2750636,4.87062992 C18.2722016,5.41653543 18.0419811,5.95544882 17.6434299,6.3491811 C17.2562173,6.73162205 16.7586898,6.94171654 16.2409417,6.94171654 L16.2409417,6.94171654 L16.2273354,6.94166929 C15.1363276,6.9339685 14.2155874,5.98110236 14.2167202,4.86089764 C14.2179496,3.7451811 15.1241386,2.83625197 16.2368787,2.8347874 L16.2368787,2.8347874 Z M16.2853039,4.06355906 C16.0730362,4.05264567 15.8674772,4.12648819 15.7071307,4.27176378 C15.5481543,4.41585827 15.455178,4.61064567 15.4453512,4.82026772 C15.4347685,5.04713386 15.5194299,5.27664567 15.6776031,5.44998425 C15.8242961,5.61070866 16.0145953,5.70411024 16.2134929,5.71299213 C16.2233197,5.71341732 16.2330992,5.7136063 16.242926,5.7136063 C16.6476189,5.7136063 17.0192409,5.34311811 17.0461228,4.90450394 L17.0461228,4.90450394 L17.0432765,4.78322079 C17.0259874,4.62178961 16.955537,4.46374488 16.8416976,4.33629921 C16.696611,4.17377953 16.4938394,4.07437795 16.2853039,4.06355906 Z" id="Combined-Shape"></path>
                                </g>
                            </g>
                        </g>
                    </g>
                </g>
            </g>
        </g>
    </g>
</svg>