<svg xmlns="http://www.w3.org/2000/svg" id="Layer_1" data-name="Layer 1" viewBox="0 0 23 24"><path class="cls-1" d="M11,24a4,4,0,0,0,4-3H7a4,4,0,0,0,4,3"/><path class="cls-1" d="M22,17.53a1.85,1.85,0,0,0,0-.23A1.35,1.35,0,0,0,22,17c0-.07,0-.15-.05-.22s-.08-.16-.12-.24l-.11-.22-.2-.21L21.34,16a7.55,7.55,0,0,1-1.57-1.78l0-.06c-.12-.19-.22-.39-.32-.58s-.12-.28-.18-.42-.07-.17-.1-.25-.14-.42-.2-.64c0,0,0,0,0-.06a7.24,7.24,0,0,1-.21-1.47c0-.08,0-.15,0-.23v-3a7.57,7.57,0,0,0-7-7.45h0l-.66,0h-.15l-.66,0h0a7.57,7.57,0,0,0-7,7.45v3A7.09,7.09,0,0,1,.67,16a1.85,1.85,0,0,0-.6,1.92,2,2,0,0,0,2,1.37H20a2.19,2.19,0,0,0,1.28-.41h0a1.71,1.71,0,0,0,.38-.38l.06-.06a1.87,1.87,0,0,0,.23-.47s0,0,0-.05,0,0,0,0a.14.14,0,0,1,0-.07A1.94,1.94,0,0,0,22,17.53Z"/></svg>