<svg width="24" height="24" viewBox="0 0 24 24" fill="none" xmlns="http://www.w3.org/2000/svg">
<path d="M13.0817 4.97276L13.0816 4.9728L13.0863 4.98064C13.2008 5.17138 13.2677 5.39751 13.2677 5.63635C13.2677 6.33967 12.6982 6.90909 11.995 6.90909C11.2917 6.90909 10.7222 6.33967 10.7222 5.63635C10.7222 5.39751 10.7891 5.17138 10.9036 4.98064L10.9036 4.98068L10.9082 4.97276L11.995 3.09077L13.0817 4.97276Z" fill="#0D2A5C" stroke="#0D2A5C" stroke-width="1.09091"/>
<path d="M12.3589 10.1818V10.7273H12.9044H17.4499C18.652 10.7273 19.6327 11.7051 19.6407 12.9109V14.3045C19.6407 14.9851 19.085 15.5409 18.4044 15.5409C18.073 15.5409 17.7659 15.4128 17.531 15.1779L17.5305 15.1775L15.5896 13.2411L15.2048 12.8572L14.8196 13.2406L12.8741 15.177L12.8732 15.1779C12.4135 15.6376 11.5862 15.6377 11.1264 15.1779L11.126 15.1775L9.18507 13.2411L8.79982 12.8568L8.41458 13.2411L6.46914 15.182L6.46869 15.1825C6.23374 15.4174 5.92669 15.5455 5.59528 15.5455C4.91471 15.5455 4.35893 14.9897 4.35893 14.3091V12.9091C4.35893 11.7058 5.33744 10.7273 6.54075 10.7273H11.0862H11.6316V10.1818V8.9091H12.3589V10.1818ZM15.2044 13.6272L17.1453 15.5636L6.54075 10.1818C5.03619 10.1818 3.81348 11.4046 3.81348 12.9091V14.3091C3.81348 15.2909 4.61346 16.0909 5.59528 16.0909C6.07255 16.0909 6.518 15.9046 6.85439 15.5682L8.79983 13.6272L10.7408 15.5636C11.4135 16.2364 12.5862 16.2364 13.2589 15.5636L15.2044 13.6272Z" fill="#0D2A5C" stroke="#0D2A5C" stroke-width="1.09091"/>
<path d="M14.5992 16.9175L15.1944 16.3251L15.7869 16.9175C16.484 17.6147 17.4089 18 18.3953 18C18.831 18 19.2464 17.9232 19.6316 17.7845V21.0909C19.6316 21.2897 19.4667 21.4546 19.268 21.4546H4.72255C4.52381 21.4546 4.35893 21.2897 4.35893 21.0909V17.7839C4.74542 17.923 5.16161 18 5.59528 18C6.58001 18 7.50596 17.6158 8.1956 16.9166L8.78986 16.3251L9.38236 16.9175C9.38236 16.9175 9.38237 16.9175 9.38237 16.9175C10.7816 18.3168 13.1993 18.3169 14.5988 16.9179C14.5989 16.9178 14.5991 16.9177 14.5992 16.9175Z" fill="#0D2A5C" stroke="#0D2A5C" stroke-width="1.09091"/>
</svg>
