<svg width="18" height="18" viewBox="0 0 18 18" fill="none" xmlns="http://www.w3.org/2000/svg">
<path d="M16.5 6.2025V3.1725C16.5 1.98 16.02 1.5 14.8275 1.5H11.7975C10.605 1.5 10.125 1.98 10.125 3.1725V6.2025C10.125 7.395 10.605 7.875 11.7975 7.875H14.8275C16.02 7.875 16.5 7.395 16.5 6.2025Z" stroke="#2D9CEC" stroke-linecap="round" stroke-linejoin="round"/>
<path d="M7.875 6.39V2.985C7.875 1.9275 7.395 1.5 6.2025 1.5H3.1725C1.98 1.5 1.5 1.9275 1.5 2.985V6.3825C1.5 7.4475 1.98 7.8675 3.1725 7.8675H6.2025C7.395 7.875 7.875 7.4475 7.875 6.39Z" stroke="#2D9CEC" stroke-linecap="round" stroke-linejoin="round"/>
<path d="M7.875 14.8275V11.7975C7.875 10.605 7.395 10.125 6.2025 10.125H3.1725C1.98 10.125 1.5 10.605 1.5 11.7975V14.8275C1.5 16.02 1.98 16.5 3.1725 16.5H6.2025C7.395 16.5 7.875 16.02 7.875 14.8275Z" stroke="#2D9CEC" stroke-linecap="round" stroke-linejoin="round"/>
<path d="M11.25 11.625H15.75" stroke="#2D9CEC" stroke-linecap="round"/>
<path d="M11.25 14.625H15.75" stroke="#2D9CEC" stroke-linecap="round"/>
</svg>
