<svg width="29" height="30" viewBox="0 0 29 30" fill="none" xmlns="http://www.w3.org/2000/svg">
<path d="M10.8752 12.5833C12.2099 12.5833 13.2918 11.5014 13.2918 10.1667C13.2918 8.83198 12.2099 7.75 10.8752 7.75C9.54047 7.75 8.4585 8.83198 8.4585 10.1667C8.4585 11.5014 9.54047 12.5833 10.8752 12.5833Z" stroke="#81868F" stroke-width="1.5" stroke-linecap="round" stroke-linejoin="round"/>
<path d="M15.7082 2.91669H10.8748C4.83317 2.91669 2.4165 5.33335 2.4165 11.375V18.625C2.4165 24.6667 4.83317 27.0834 10.8748 27.0834H18.1248C24.1665 27.0834 26.5832 24.6667 26.5832 18.625V12.5834" stroke="#81868F" stroke-width="1.5" stroke-linecap="round" stroke-linejoin="round"/>
<path d="M19.0312 6.54169H25.6771" stroke="#81868F" stroke-width="1.5" stroke-linecap="round"/>
<path d="M22.354 9.86458V3.21875" stroke="#81868F" stroke-width="1.5" stroke-linecap="round"/>
<path d="M3.22607 23.3979L9.18316 19.3984C10.1377 18.7579 11.5152 18.8304 12.3732 19.5675L12.7719 19.9179C13.7144 20.7275 15.2369 20.7275 16.1794 19.9179L21.2061 15.6042C22.1486 14.7946 23.6711 14.7946 24.6136 15.6042L26.5832 17.2959" stroke="#81868F" stroke-width="1.5" stroke-linecap="round" stroke-linejoin="round"/>
</svg>
