<svg width="14" height="15" viewBox="0 0 14 15" fill="none" xmlns="http://www.w3.org/2000/svg">
<path d="M3.0625 13H10.9375" stroke="#2D9CEC" stroke-linecap="round" stroke-linejoin="round"/>
<path d="M7 7.75C7.9665 7.75 8.75 6.9665 8.75 6C8.75 5.0335 7.9665 4.25 7 4.25C6.0335 4.25 5.25 5.0335 5.25 6C5.25 6.9665 6.0335 7.75 7 7.75Z" stroke="#2D9CEC" stroke-linecap="round" stroke-linejoin="round"/>
<path d="M11.375 6C11.375 9.9375 7 13 7 13C7 13 2.625 9.9375 2.625 6C2.625 4.83968 3.08594 3.72688 3.90641 2.90641C4.72688 2.08594 5.83968 1.625 7 1.625C8.16032 1.625 9.27312 2.08594 10.0936 2.90641C10.9141 3.72688 11.375 4.83968 11.375 6V6Z" stroke="#2D9CEC" stroke-linecap="round" stroke-linejoin="round"/>
</svg>
