<svg width="24" height="24" viewBox="0 0 24 24" fill="none" xmlns="http://www.w3.org/2000/svg">
<path d="M13.1301 15.72C13.1301 16.3441 12.6242 16.85 12.0001 16.85C11.376 16.85 10.8701 16.3441 10.8701 15.72C10.8701 15.0959 11.376 14.59 12.0001 14.59C12.6242 14.59 13.1301 15.0959 13.1301 15.72Z" fill="#0D2A5C" stroke="#0D2A5C"/>
<path d="M17.78 9.53V9.97139L18.218 10.0261C19.545 10.192 20.3125 10.5957 20.7793 11.2677C21.2678 11.9709 21.5 13.0662 21.5 14.79V16.65C21.5 18.6824 21.182 19.8359 20.5089 20.5089C19.8359 21.182 18.6824 21.5 16.65 21.5H7.35C5.31759 21.5 4.16409 21.182 3.49105 20.5089C2.81802 19.8359 2.5 18.6824 2.5 16.65V14.79C2.5 13.0662 2.73222 11.9709 3.22065 11.2677C3.68747 10.5957 4.45503 10.192 5.78202 10.0261L6.22 9.97139V9.53V8.28C6.22 6.95107 6.38483 5.51482 7.15782 4.41501C7.90528 3.35152 9.29851 2.5 12 2.5C14.7015 2.5 16.0947 3.35152 16.8422 4.41501C17.6152 5.51482 17.78 6.95107 17.78 8.28V9.53ZM6.62 9.44V9.94H6.85V9.95H7.35H16.65H16.6505H16.6509H16.6514H16.6519H16.6523H16.6528H16.6533H16.6537H16.6542H16.6547H16.6551H16.6556H16.6561H16.6565H16.657H16.6575H16.6579H16.6584H16.6589H16.6593H16.6598H16.6603H16.6607H16.6612H16.6616H16.6621H16.6626H16.663H16.6635H16.664H16.6644H16.6649H16.6653H16.6658H16.6663H16.6667H16.6672H16.6677H16.6681H16.6686H16.669H16.6695H16.67H16.6704H16.6709H16.6713H16.6718H16.6723H16.6727H16.6732H16.6736H16.6741H16.6745H16.675H16.6755H16.6759H16.6764H16.6768H16.6773H16.6777H16.6782H16.6787H16.6791H16.6796H16.68H16.6805H16.6809H16.6814H16.6818H16.6823H16.6828H16.6832H16.6837H16.6841H16.6846H16.685H16.6855H16.6859H16.6864H16.6868H16.6873H16.6877H16.6882H16.6887H16.6891H16.6896H16.69H16.6905H16.6909H16.6914H16.6918H16.6923H16.6927H16.6932H16.6936H16.6941H16.6945H16.695H16.6954H16.6959H16.6963H16.6968H16.6972H16.6977H16.6981H16.6986H16.699H16.6995H16.6999H16.7004H16.7008H16.7013H16.7017H16.7022H16.7026H16.7031H16.7035H16.704H16.7044H16.7049H16.7053H16.7058H16.7062H16.7066H16.7071H16.7075H16.708H16.7084H16.7089H16.7093H16.7098H16.7102H16.7107H16.7111H16.7116H16.712H16.7125H16.7129H16.7133H16.7138H16.7142H16.7147H16.7151H16.7156H16.716H16.7165H16.7169H16.7174H16.7178H16.7182H16.7187H16.7191H16.7196H16.72H16.7205H16.7209H16.7213H16.7218H16.7222H16.7227H16.7231H16.7236H16.724H16.7245H16.7249H16.7253H16.7258H16.7262H16.7267H16.7271H16.7276H16.728H16.7284H16.7289H16.7293H16.7298H16.7302H16.7307H16.7311H16.7315H16.732H16.7324H16.7329H16.7333H16.7337H16.7342H16.7346H16.7351H16.7355H16.736H16.7364H16.7368H16.7373H16.7377H16.7382H16.7386H16.739H16.7395H16.7399H16.7404H16.7408H16.7412H16.7417H16.7421H16.7426H16.743H16.7434H16.7439H16.7443H16.7448H16.7452H16.7457H16.7461H16.7465H16.747H16.7474H16.7479H16.7483H16.7487H16.7492H16.7496H16.7501H16.7505H16.7509H16.7514H16.7518H16.7523H16.7527H16.7531H16.7536H16.754H16.7545H16.7549H16.7553H16.7558H16.7562H16.7566H16.7571H16.7575H16.758H16.7584H16.7588H16.7593H16.7597H16.7602H16.7606H16.761H16.7615H16.7619H16.7624H16.7628H16.7632H16.7637H16.7641H16.7646H16.765H16.7654H16.7659H16.7663H16.7668H16.7672H16.7676H16.7681H16.7685H16.769H16.7694H16.7698H16.7703H16.7707H16.7712H16.7716H16.772H16.7725H16.7729H16.7733H16.7738H16.7742H16.7747H16.7751H16.7755H16.776H16.7764H16.7769H16.7773H16.7777H16.7782H16.7786H16.7791H16.7795H16.7799H16.7804H16.7808H16.7813H16.7817H16.7821H16.7826H16.783H16.7835H16.7839H16.7843H16.7848H16.7852H16.7857H16.7861H16.7866H16.787H16.7874H16.7879H16.7883H16.7888H16.7892H16.7896H16.7901H16.7905H16.791H16.7914H16.7918H16.7923H16.7927H16.7932H16.7936H16.794H16.7945H16.7949H16.7954H16.7958H16.7963H16.7967H16.7971H16.7976H16.798H16.7985H16.7989H16.7993H16.7998H16.8002H16.8007H16.8011H16.8016H16.802H16.8024H16.8029H16.8033H16.8038H16.8042H16.8047H16.8051H16.8055H16.806H16.8064H16.8069H16.8073H16.8078H16.8082H16.8087H16.8091H16.8095H16.81H16.8104H16.8109H16.8113H16.8118H16.8122H16.8126H16.8131H16.8135H16.814H16.8144H16.8149H16.8153H16.8158H16.8162H16.8167H16.8171H16.8175H16.818H16.8184H16.8189H16.8193H16.8198H16.8202H16.8207H16.8211H16.8216H16.822H16.8225H16.8229H16.8233H16.8238H16.8242H16.8247H16.8251H16.8256H16.826H16.8265H16.8269H16.8274H16.8278H16.8283H16.8287H16.8292H16.8296H16.8301H16.8305H16.831H16.8314H16.8319H16.8323H16.8328H16.8332H16.8337H16.8341H16.8346H16.835H16.8355H16.8359H16.8364H16.8368H16.8373H16.8377H16.8382H16.8386H16.8391H16.8395H16.84H16.8404H16.8409H16.8413H16.8418H16.8422H16.8427H16.8432H16.8436H16.8441H16.8445H16.845H16.8454H16.8459H16.8463H16.8468H16.8472H16.8477H16.8482H16.8486H16.8491H16.8495H16.85H16.8504H16.8509H16.8513H16.8518H16.8523H16.8527H16.8532H16.8536H16.8541H16.8545H16.855H16.8555H16.8559H16.8564H16.8568H16.8573H16.8577H16.8582H16.8587H16.8591H16.8596H16.86H16.8605H16.861H16.8614H16.8619H16.8623H16.8628H16.8633H16.8637H16.8642H16.8646H16.8651H16.8656H16.866H16.8665H16.867H16.8674H16.8679H16.8684H16.8688H16.8693H16.8697H16.8702H16.8707H16.8711H16.8716H16.8721H16.8725H16.873H16.8735H16.8739H16.8744H16.8749H16.8753H16.8758H16.8763H16.8767H16.8772H16.8777H16.8781H16.8786H16.8791H16.8795H16.88H17.38V9.45V8.28C17.38 6.7923 17.1753 5.41688 16.3424 4.42055C15.4923 3.40382 14.0938 2.9 12 2.9C9.90625 2.9 8.50765 3.40382 7.65765 4.42055C6.8247 5.41688 6.62 6.7923 6.62 8.28V9.44ZM8.48 15.72C8.48 17.6551 10.0528 19.24 12 19.24C13.9461 19.24 15.52 17.6661 15.52 15.72C15.52 13.7839 13.9361 12.2 12 12.2C10.0649 12.2 8.48 13.7728 8.48 15.72Z" fill="#0D2A5C" stroke="#0D2A5C"/>
</svg>
