<svg width="20" height="20" viewBox="0 0 20 20" fill="none" xmlns="http://www.w3.org/2000/svg">
<path d="M13.5496 3.18596C13.17 3.02013 12.7279 3.19342 12.562 3.573C12.3962 3.95259 12.5695 4.39472 12.9491 4.56055C15.3894 5.62663 17.0001 8.04024 17.0001 10.7493C17.0001 14.4771 13.9776 17.4994 10.25 17.4994C6.52197 17.4994 3.49999 14.4774 3.49999 10.7493C3.49999 8.04083 5.11016 5.62723 7.54974 4.56044C7.92925 4.3945 8.1024 3.95231 7.93643 3.57279C7.77049 3.19328 7.32829 3.02013 6.94877 3.1861C3.96789 4.48953 2 7.43938 2 10.7493C2 15.3058 5.69358 18.9994 10.2501 18.9994C14.8061 18.9994 18.5002 15.3055 18.5002 10.7493C18.5002 7.4386 16.5315 4.48862 13.5496 3.18596Z" fill="#2D9CEC"/>
<path d="M10.25 9.25008C10.6642 9.25008 11 8.9143 11 8.50008V1.75003C11 1.33578 10.6642 1 10.25 1C9.83578 1 9.5 1.33578 9.5 1.74999V8.50005C9.5 8.91426 9.83578 9.25008 10.25 9.25008Z" fill="#2D9CEC"/>
</svg>
