<svg width="16" height="17" viewBox="0 0 16 17" fill="none" xmlns="http://www.w3.org/2000/svg">
<g opacity="0.4">
<path d="M8 2C6.71442 2 5.45772 2.38122 4.3888 3.09545C3.31988 3.80968 2.48676 4.82484 1.99479 6.01256C1.50282 7.20028 1.37409 8.50721 1.6249 9.76809C1.8757 11.029 2.49477 12.1872 3.40381 13.0962C4.31285 14.0052 5.47104 14.6243 6.73192 14.8751C7.99279 15.1259 9.29973 14.9972 10.4874 14.5052C11.6752 14.0132 12.6903 13.1801 13.4046 12.1112C14.1188 11.0423 14.5 9.78558 14.5 8.5C14.4981 6.77669 13.8126 5.12452 12.594 3.90596C11.3755 2.6874 9.72331 2.00195 8 2ZM8.75 11.5H8.5V12C8.5 12.1326 8.44732 12.2598 8.35356 12.3536C8.25979 12.4473 8.13261 12.5 8 12.5C7.86739 12.5 7.74022 12.4473 7.64645 12.3536C7.55268 12.2598 7.5 12.1326 7.5 12V11.5H6.5C6.36739 11.5 6.24022 11.4473 6.14645 11.3536C6.05268 11.2598 6 11.1326 6 11C6 10.8674 6.05268 10.7402 6.14645 10.6464C6.24022 10.5527 6.36739 10.5 6.5 10.5H8.75C8.94892 10.5 9.13968 10.421 9.28033 10.2803C9.42098 10.1397 9.5 9.94891 9.5 9.75C9.5 9.55109 9.42098 9.36032 9.28033 9.21967C9.13968 9.07902 8.94892 9 8.75 9H7.25C6.78587 9 6.34075 8.81563 6.01257 8.48744C5.68438 8.15925 5.5 7.71413 5.5 7.25C5.5 6.78587 5.68438 6.34075 6.01257 6.01256C6.34075 5.68437 6.78587 5.5 7.25 5.5H7.5V5C7.5 4.86739 7.55268 4.74021 7.64645 4.64645C7.74022 4.55268 7.86739 4.5 8 4.5C8.13261 4.5 8.25979 4.55268 8.35356 4.64645C8.44732 4.74021 8.5 4.86739 8.5 5V5.5H9.5C9.63261 5.5 9.75979 5.55268 9.85356 5.64645C9.94732 5.74021 10 5.86739 10 6C10 6.13261 9.94732 6.25979 9.85356 6.35355C9.75979 6.44732 9.63261 6.5 9.5 6.5H7.25C7.05109 6.5 6.86032 6.57902 6.71967 6.71967C6.57902 6.86032 6.5 7.05109 6.5 7.25C6.5 7.44891 6.57902 7.63968 6.71967 7.78033C6.86032 7.92098 7.05109 8 7.25 8H8.75C9.21413 8 9.65925 8.18437 9.98744 8.51256C10.3156 8.84075 10.5 9.28587 10.5 9.75C10.5 10.2141 10.3156 10.6592 9.98744 10.9874C9.65925 11.3156 9.21413 11.5 8.75 11.5Z" fill="#040E20"/>
</g>
</svg>
