<svg width="14" height="15" viewBox="0 0 14 15" fill="none" xmlns="http://www.w3.org/2000/svg">
<path d="M9.91372 2.64584H4.08039C1.84622 2.64584 1.22206 3.18251 1.16956 5.27084C2.29539 5.27084 3.20539 6.18668 3.20539 7.31251C3.20539 8.43834 2.29539 9.34834 1.16956 9.35418C1.22206 11.4425 1.84622 11.9792 4.08039 11.9792H9.91372C12.2471 11.9792 12.8304 11.3958 12.8304 9.06251V5.56251C12.8304 3.22918 12.2471 2.64584 9.91372 2.64584Z" stroke="#2D9CEC" stroke-linecap="round" stroke-linejoin="round"/>
<path d="M5.24609 2.64584V4.68751" stroke="#2D9CEC" stroke-linecap="round" stroke-linejoin="round"/>
<path d="M5.24609 9.9375V11.9792" stroke="#2D9CEC" stroke-linecap="round" stroke-linejoin="round"/>
<path d="M8.76457 5.75501L9.12624 6.48418C9.16124 6.55418 9.23124 6.60668 9.30707 6.61834L10.1121 6.73501C10.3104 6.76418 10.3921 7.00918 10.2462 7.14918L9.66291 7.71501C9.60457 7.76751 9.58124 7.84918 9.59291 7.93084L9.73291 8.73001C9.76791 8.92834 9.55791 9.08001 9.38291 8.98668L8.66541 8.60751C8.59541 8.57251 8.50791 8.57251 8.43791 8.60751L7.72041 8.98668C7.53957 9.08001 7.33541 8.92834 7.37041 8.73001L7.51041 7.93084C7.52207 7.84918 7.49874 7.77334 7.44041 7.71501L6.86291 7.14918C6.71707 7.00918 6.79874 6.76418 6.99707 6.73501L7.80207 6.61834C7.88374 6.60668 7.94791 6.56001 7.98291 6.48418L8.33874 5.75501C8.42041 5.57418 8.67707 5.57418 8.76457 5.75501Z" stroke="#2D9CEC" stroke-linecap="round" stroke-linejoin="round"/>
</svg>
