<svg width="25" height="25" viewBox="0 0 25 25" fill="none" xmlns="http://www.w3.org/2000/svg">
<path d="M8.375 2.5V5.5" stroke="#6A7892" stroke-miterlimit="10" stroke-linecap="round" stroke-linejoin="round"/>
<path d="M16.375 2.5V5.5" stroke="#6A7892" stroke-miterlimit="10" stroke-linecap="round" stroke-linejoin="round"/>
<path d="M3.875 9.58997H20.875" stroke="#6A7892" stroke-miterlimit="10" stroke-linecap="round" stroke-linejoin="round"/>
<path d="M19.585 16.27L16.0451 19.81C15.9051 19.95 15.775 20.21 15.745 20.4L15.555 21.75C15.485 22.24 15.825 22.5801 16.315 22.5101L17.665 22.32C17.855 22.29 18.125 22.16 18.255 22.02L21.7951 18.4801C22.4051 17.8701 22.6951 17.1601 21.7951 16.2601C20.9051 15.3701 20.195 15.66 19.585 16.27Z" stroke="#6A7892" stroke-miterlimit="10" stroke-linecap="round" stroke-linejoin="round"/>
<path d="M19.0751 16.78C19.3751 17.86 20.2151 18.7 21.2951 19" stroke="#6A7892" stroke-miterlimit="10" stroke-linecap="round" stroke-linejoin="round"/>
<path d="M12.375 22.5H8.375C4.875 22.5 3.375 20.5 3.375 17.5V9C3.375 6 4.875 4 8.375 4H16.375C19.875 4 21.375 6 21.375 9V12.5" stroke="#6A7892" stroke-miterlimit="10" stroke-linecap="round" stroke-linejoin="round"/>
<path d="M12.3705 14.2H12.3795" stroke="#6A7892" stroke-linecap="round" stroke-linejoin="round"/>
<path d="M8.66931 14.2H8.67829" stroke="#6A7892" stroke-linecap="round" stroke-linejoin="round"/>
<path d="M8.66931 17.2H8.67829" stroke="#6A7892" stroke-linecap="round" stroke-linejoin="round"/>
</svg>
