<svg width="25" height="25" viewBox="0 0 25 25" fill="none" xmlns="http://www.w3.org/2000/svg">
<path d="M12.6261 20.75C12.6261 20.75 3.2511 15.5 3.2511 9.12501C3.25129 7.99826 3.64171 6.90635 4.35598 6.03493C5.07026 5.16351 6.06429 4.56636 7.16909 4.34501C8.27388 4.12367 9.42124 4.29179 10.4161 4.82079C11.4109 5.34979 12.1919 6.20702 12.6261 7.24673L12.6261 7.24673C13.0603 6.20702 13.8413 5.34979 14.8361 4.82079C15.831 4.29179 16.9783 4.12367 18.0831 4.34501C19.1879 4.56636 20.1819 5.16351 20.8962 6.03493C21.6105 6.90635 22.0009 7.99826 22.0011 9.12501C22.0011 15.5 12.6261 20.75 12.6261 20.75Z" stroke="#6A7892" stroke-linecap="round" stroke-linejoin="round"/>
</svg>
