<svg width="25" height="25" viewBox="0 0 25 25" fill="none" xmlns="http://www.w3.org/2000/svg">
<path d="M12.125 2.5C9.505 2.5 7.375 4.63 7.375 7.25C7.375 9.82 9.385 11.9 12.005 11.99C12.085 11.98 12.165 11.98 12.225 11.99C12.245 11.99 12.255 11.99 12.275 11.99C12.285 11.99 12.285 11.99 12.295 11.99C14.855 11.9 16.865 9.82 16.875 7.25C16.875 4.63 14.745 2.5 12.125 2.5Z" fill="#0D2A5C"/>
<path d="M17.205 14.6499C14.415 12.7899 9.86499 12.7899 7.05499 14.6499C5.78499 15.4999 5.08499 16.6499 5.08499 17.8799C5.08499 19.1099 5.78499 20.2499 7.04499 21.0899C8.44499 22.0299 10.285 22.4999 12.125 22.4999C13.965 22.4999 15.805 22.0299 17.205 21.0899C18.465 20.2399 19.165 19.0999 19.165 17.8599C19.155 16.6299 18.465 15.4899 17.205 14.6499Z" fill="#0D2A5C"/>
</svg>
