<svg width="25" height="25" viewBox="0 0 25 25" fill="none" xmlns="http://www.w3.org/2000/svg">
<path d="M17.1272 3.50001C16.2541 3.49851 15.3927 3.70077 14.6115 4.09072C13.8302 4.48066 13.1508 5.04752 12.6272 5.74621C11.918 4.80266 10.9301 4.106 9.80323 3.75482C8.67634 3.40365 7.46756 3.41573 6.34791 3.78936C5.22827 4.163 4.25448 4.87926 3.56432 5.8368C2.87416 6.79434 2.5026 7.94467 2.5022 9.12501C2.5022 15.8621 11.8623 21.1813 12.2607 21.4044C12.3727 21.4671 12.4989 21.5 12.6272 21.5C12.7555 21.5 12.8817 21.4671 12.9937 21.4044C14.7152 20.3961 16.3309 19.2173 17.8164 17.8856C21.0915 14.938 22.7522 11.9905 22.7522 9.12501C22.7505 7.63368 22.1573 6.20393 21.1028 5.1494C20.0483 4.09487 18.6185 3.5017 17.1272 3.50001Z" fill="#0D2A5C"/>
</svg>
