<?xml version="1.0" encoding="UTF-8"?>
<svg width="14px" height="12px" viewBox="0 0 14 12" version="1.1" xmlns="http://www.w3.org/2000/svg" xmlns:xlink="http://www.w3.org/1999/xlink">
    <!-- Generator: Sketch 58 (84663) - https://sketch.com -->
    <title>Mask</title>
    <desc>Created with Sketch.</desc>
    <defs>
        <path d="M240.497497,203.23689 C240.81335,203.552744 240.81335,204.064843 240.497497,204.380697 L236.761,208.116 L247.19104,208.116859 C247.637724,208.116859 247.999833,208.478968 247.999833,208.925653 C247.999833,209.372337 247.637724,209.734446 247.19104,209.734446 L236.761,209.734 L240.497497,213.470824 C240.81335,213.786678 240.81335,214.298777 240.497497,214.614631 C240.181643,214.930484 239.669544,214.930484 239.35369,214.614631 L234.236723,209.497664 L234.219445,209.479399 C234.206172,209.465274 234.1934,209.450672 234.181159,209.435621 L234.236723,209.497664 C234.203907,209.464848 234.174501,209.429914 234.148504,209.393301 C234.138949,209.379152 234.129581,209.365024 234.120654,209.350596 C234.083734,209.291611 234.055634,209.229163 234.03577,209.164722 C234.030551,209.146917 234.025448,209.128076 234.021022,209.108975 C234.016927,209.092422 234.013741,209.076412 234.011043,209.060335 C234.008602,209.04418 234.006313,209.027387 234.004547,209.010438 C234.001873,208.987683 234.00046,208.964972 234,208.942245 C234.000216,208.937092 234.000157,208.931379 234.000157,208.925653 L234.000021,208.908277 C234.000502,208.885883 234.001908,208.863506 234.004238,208.841208 L234.000157,208.925653 C234.000157,208.879021 234.004103,208.833311 234.01168,208.788838 C234.013947,208.774127 234.016943,208.759121 234.020366,208.744193 C234.025761,208.721652 234.031853,208.699528 234.038839,208.677805 C234.042786,208.664768 234.047319,208.651796 234.052191,208.638924 C234.076994,208.574141 234.109785,208.513097 234.149479,208.457306 C234.159305,208.44306 234.169821,208.429257 234.18084,208.415728 C234.1934,208.400634 234.206172,208.386031 234.219445,208.371906 C234.224847,208.365918 234.230728,208.359852 234.236723,208.353857 L239.35369,203.23689 C239.669544,202.921037 240.181643,202.921037 240.497497,203.23689 Z" id="path-1"></path>
    </defs>
    <g id="Page-1" stroke="none" stroke-width="1" fill="none" fill-rule="evenodd">
        <g id="Home" transform="translate(-254.000000, -816.000000)">
            <g id="Group-23" transform="translate(20.000000, 574.000000)">
                <g id="part-1" transform="translate(0.000000, 39.000000)">
                    <g id="Path-2">
                        <mask id="mask-2" fill="white">
                            <use xlink:href="#path-1"></use>
                        </mask>
                        <use id="Mask" fill="#FFFFFF" fill-rule="nonzero" transform="translate(240.999917, 208.925760) scale(-1, 1) translate(-240.999917, -208.925760) " xlink:href="#path-1"></use>
                    </g>
                </g>
            </g>
        </g>
    </g>
</svg>