<?xml version="1.0" encoding="UTF-8"?>
<svg width="80px" height="80px" viewBox="0 0 80 80" version="1.1" xmlns="http://www.w3.org/2000/svg" xmlns:xlink="http://www.w3.org/1999/xlink">
    <!-- Generator: Sketch 58 (84663) - https://sketch.com -->
    <title>Combined Shape</title>
    <desc>Created with Sketch.</desc>
    <defs>
        <circle id="path-1" cx="40" cy="40" r="40"></circle>
    </defs>
    <g id="Page-1" stroke="none" stroke-width="1" fill="none" fill-rule="evenodd">
        <g id="Edit-Profile" transform="translate(-148.000000, -116.000000)">
            <g id="Group-4" transform="translate(0.000000, 96.000000)">
                <g id="Combined-Shape" transform="translate(148.000000, 20.000000)">
                    <mask id="mask-2" fill="white">
                        <use xlink:href="#path-1"></use>
                    </mask>
                    <use id="Mask" fill="#EDEDED" xlink:href="#path-1"></use>
                    <path d="M50.1292484,53.3230515 C50.3382099,53.164864 50.6197581,53.1412183 50.8516321,53.2621961 L50.8516321,53.2621961 L61.3849436,58.7454203 C62.0637021,59.0984553 62.609385,59.6784153 62.9193446,60.3786198 L62.9193446,60.3786198 L69.7063789,75.6678227 C70.1747094,76.7210622 70.0781105,77.9275402 69.4501261,78.894079 C68.8214084,79.8608011 67.7582708,80.4378282 66.6047664,80.4378282 L66.6047664,80.4378282 L13.3949087,80.4378282 C12.2419542,80.4378282 11.1788165,79.8608011 10.5500989,78.894079 C9.92138124,77.9275402 9.82551555,76.7217954 10.293846,75.6678227 L10.293846,75.6678227 L17.0808803,60.3786198 C17.3915732,59.6784153 17.9357897,59.0984553 18.6152813,58.7454203 L18.6152813,58.7454203 L29.1478596,53.2621961 C29.3799169,53.1412183 29.6612818,53.164864 29.8709765,53.3230515 C32.8495951,55.5763535 36.3524504,56.7670677 40.0004791,56.7670677 C43.6477745,56.7670677 47.1506299,55.5763535 50.1292484,53.3230515 Z M40.0004791,21 C47.4297952,21 53.45302,24.6868882 53.45302,36.7459856 C53.45302,45.4419019 47.4297952,52.4917878 40.0004791,52.4917878 C32.5704298,52.4917878 26.5472049,45.4419019 26.5472049,36.7459856 C26.5472049,24.6868882 32.5704298,21 40.0004791,21 Z" fill="#90989E" opacity="0.395949591" mask="url(#mask-2)"></path>
                </g>
            </g>
        </g>
    </g>
</svg>