<svg width="22" height="22" viewBox="0 0 22 22" fill="none" xmlns="http://www.w3.org/2000/svg">
<path fill-rule="evenodd" clip-rule="evenodd" d="M1.33221 1.32458V2.30041V2.30102V2.30164V2.30217V2.3027V2.30331V2.30384V2.30446V2.30498V2.30551V2.30604V2.30657C1.33221 3.25468 1.33221 4.17217 1.33221 5.08974C1.33221 5.12767 1.33221 5.16551 1.33221 5.20344V5.20353V5.20362C1.33221 5.32699 1.3331 5.45046 1.32868 5.57366C1.31365 5.96358 1.12626 6.21359 0.722301 6.25249C0.342212 6.28918 0.0611229 6.04921 0.0195782 5.62452C-0.00428785 5.37953 -0.000752135 5.13172 0.00189965 4.88418C0.00366751 4.7938 0.00455144 4.7036 0.00455144 4.61349C0.00366751 3.87622 0.00278358 3.13905 0.00278358 2.40178C0.00189965 1.93626 0.00189965 1.47066 0.00101572 1.00505C0.00101572 0.219208 0.214926 -0.000175894 0.98748 1.05789e-07C1.56645 0.000176106 2.14543 0.000616106 2.7244 0.00105611C3.61894 0.00167211 4.51347 0.00228811 5.40801 0.00220011C5.78279 0.00211211 6.12841 0.0654721 6.26011 0.475728C6.40861 0.935704 6.08686 1.31674 5.53794 1.32097C4.66727 1.32766 3.79661 1.32651 2.92505 1.32546C2.57325 1.32493 2.22144 1.32449 1.86964 1.32458H1.33221ZM10.609 11.2165L9.99471 11.2166C7.95726 11.2169 5.92068 11.2172 3.88411 11.2157C3.72235 11.2156 3.55883 11.2121 3.39884 11.1884C3.05499 11.1373 2.87997 10.9042 2.86848 10.5815C2.85787 10.2593 3.0161 10.0118 3.35641 9.94055C3.52701 9.90465 3.70644 9.89576 3.88235 9.89567C8.36651 9.89321 12.8498 9.89347 17.3331 9.89409C18.042 9.89426 18.3717 10.1176 18.3558 10.5806C18.3399 11.0249 18.0367 11.2156 17.3349 11.2158C15.9674 11.2163 14.6 11.2163 13.2325 11.2163H13.2246L10.609 11.2165ZM18.9223 1.32455H19.8841V1.93325C19.8841 2.4147 19.8841 2.87062 19.8849 3.32664C19.8849 3.52112 19.8849 3.7156 19.8841 3.91008C19.8841 4.46369 19.8841 5.01738 19.8902 5.57099C19.8947 5.96083 20.0891 6.21172 20.4922 6.25229C20.8732 6.29057 21.1392 6.04892 21.2011 5.62678C21.2135 5.54151 21.2135 5.45404 21.2126 5.3671V5.31949L21.2135 4.51966C21.2135 3.33394 21.2144 2.14832 21.2126 0.962608C21.2108 0.230184 20.9898 0.00525563 20.2703 0.00340763C18.7968 -0.000552374 17.3233 -0.000376374 15.8498 0.000855626C15.7181 0.000943626 15.5829 0.00446362 15.4565 0.0352636C15.0923 0.123704 14.8978 0.35708 14.9349 0.737064C14.9703 1.09408 15.1913 1.29208 15.544 1.31522C15.7694 1.33001 15.9965 1.3279 16.2228 1.32578C16.3059 1.32499 16.389 1.32429 16.4721 1.32429C17.28 1.32473 18.0879 1.32464 18.9197 1.32455H18.9206H18.9215H18.9223ZM19.885 20.5023V19.4925V19.4922V19.4919V19.4917V19.4914V19.4911V19.4909V19.4906V19.4903V19.4902C19.885 18.5069 19.885 17.5544 19.8859 16.602C19.8859 16.5683 19.8859 16.5344 19.8859 16.5005C19.8841 16.3572 19.8824 16.2128 19.9115 16.0755C19.9761 15.7705 20.1794 15.5915 20.4985 15.5721C20.814 15.553 21.0474 15.6889 21.1455 15.9928C21.1941 16.143 21.21 16.3094 21.2109 16.4686C21.2153 17.9372 21.2153 19.4059 21.2127 20.8745C21.2109 21.5998 20.9873 21.8219 20.2563 21.8236C19.0736 21.8262 17.89 21.8253 16.7064 21.8245L15.8755 21.824L15.8331 21.8241C15.7438 21.8245 15.6537 21.8248 15.5661 21.8122C15.1392 21.7503 14.9006 21.4901 14.935 21.108C14.9713 20.7006 15.2285 20.5123 15.6183 20.5083C16.283 20.5016 16.9486 20.502 17.6133 20.5023C17.8626 20.5024 18.1127 20.5026 18.362 20.5023C18.697 20.502 19.0311 20.5021 19.39 20.5022L19.885 20.5023ZM2.31155 20.5023L1.33215 20.5024V19.867V19.8667C1.33215 19.4221 1.33215 18.995 1.33215 18.5678C1.33127 18.3514 1.33215 18.135 1.33304 17.9186C1.33392 17.3575 1.33481 16.7964 1.32331 16.2356C1.31536 15.8272 1.06963 15.5839 0.708984 15.5668C0.34127 15.5493 0.0875823 15.7659 0.0186358 16.1659C0.000957275 16.2701 0.000957275 16.3778 0.000957275 16.4843V16.5167V17.0729C0.000957275 18.3397 0.0018412 19.6066 0.00449299 20.8733C0.00714478 21.599 0.229011 21.8217 0.957368 21.8235C2.43088 21.8272 3.90439 21.826 5.37789 21.8222C5.52374 21.8219 5.67313 21.8087 5.81367 21.771C6.14161 21.6826 6.30072 21.454 6.28304 21.1181C6.26536 20.7802 6.07355 20.5777 5.74207 20.5231C5.61037 20.5014 5.47424 20.5021 5.33989 20.5029H5.339C5.3116 20.5031 5.2842 20.5032 5.25768 20.5032C4.28713 20.5021 3.31746 20.5022 2.31155 20.5023ZM9.84092 14.4606C9.84092 14.5686 9.84269 14.6766 9.84446 14.7848C9.84888 15.0289 9.8533 15.273 9.83562 15.5156C9.80645 15.9217 9.54834 16.1602 9.18328 16.146C8.80496 16.1315 8.55657 15.9235 8.54508 15.5502C8.52387 14.8039 8.52741 14.0559 8.55569 13.3098C8.56895 12.9538 8.81468 12.7537 9.17179 12.7472C9.55011 12.7405 9.79761 12.9406 9.82678 13.3187C9.84711 13.5819 9.84269 13.8471 9.83739 14.1125V14.1125C9.83562 14.2286 9.83297 14.3447 9.83297 14.4606H9.84092ZM9.84003 7.03332V7.03323C9.83826 6.92552 9.83737 6.81789 9.83737 6.71036L9.8303 6.71027C9.8303 6.59015 9.83295 6.46985 9.83472 6.34956C9.84003 6.07368 9.84533 5.79789 9.82411 5.52403C9.79583 5.16297 9.53772 4.97183 9.19299 4.9706C8.84914 4.96919 8.57424 5.15566 8.5601 5.51831C8.53093 6.27889 8.52562 7.04194 8.55126 7.80261C8.56452 8.17732 8.82704 8.38095 9.20713 8.3718C9.58987 8.36265 9.8082 8.13913 9.83207 7.76574C9.84798 7.52242 9.84445 7.27787 9.84003 7.03341V7.03332ZM11.3727 14.3989C11.3727 14.2954 11.371 14.1919 11.3692 14.0883C11.3657 13.8542 11.3612 13.6201 11.3771 13.3874C11.4045 12.9783 11.652 12.7447 12.0153 12.7398C12.3813 12.7347 12.6553 12.9586 12.6721 13.3666C12.7004 14.0837 12.7004 14.8035 12.673 15.5207C12.6571 15.9277 12.3795 16.1638 12.0171 16.1457C11.6132 16.1256 11.3975 15.8907 11.3789 15.4985C11.3665 15.2444 11.3692 14.9897 11.3727 14.735C11.3736 14.623 11.3754 14.5109 11.3754 14.3989H11.3727ZM14.2164 6.34691C14.2181 6.45893 14.219 6.57104 14.219 6.68298H14.2217C14.2217 6.795 14.2199 6.90712 14.2181 7.01914C14.2137 7.27416 14.2102 7.52919 14.227 7.7828C14.2526 8.1598 14.486 8.36792 14.866 8.37408C15.2276 8.37997 15.483 8.18294 15.4972 7.83059C15.529 7.07018 15.529 6.30687 15.5025 5.54611C15.4892 5.16991 15.217 4.95906 14.8475 4.97103C14.4807 4.98308 14.2402 5.19974 14.2225 5.58298C14.2111 5.83721 14.2137 6.09206 14.2164 6.34691ZM7.00169 6.99712V6.99721C7.00523 7.25197 7.00876 7.50673 6.99462 7.76052C6.9734 8.13461 6.75684 8.35751 6.3741 8.37177C5.99136 8.38594 5.73148 8.17764 5.71646 7.80628C5.68729 7.04623 5.68817 6.28318 5.72176 5.52321C5.73767 5.14455 6.02583 4.95059 6.39266 4.97207C6.73739 4.99213 6.97252 5.19875 6.99108 5.56184C7.00434 5.8159 7.00081 6.07075 6.99815 6.32568V6.32577C6.99639 6.43762 6.9955 6.54938 6.9955 6.66114H6.99904C6.99904 6.77307 6.99992 6.8851 7.00169 6.99712ZM7.00611 14.771C7.00523 14.668 7.00434 14.5651 7.00434 14.4621H7.00876V14.2689C7.00876 14.0108 7.00876 13.7527 7.00876 13.4946C7.00876 13.4713 7.007 13.4481 7.00523 13.4249V13.4248L7.00346 13.4066C6.97783 13.0156 6.78513 12.7737 6.37941 12.7459C6.01081 12.7207 5.72707 12.9421 5.7085 13.3509C5.6758 14.0818 5.67668 14.8161 5.71027 15.547C5.72795 15.9482 6.02495 16.1764 6.38825 16.1447C6.79132 16.1095 6.9902 15.8648 7.00258 15.4736C7.00965 15.2395 7.00788 15.0053 7.00611 14.771ZM14.2136 14.107V14.1069C14.211 13.8625 14.2083 13.6181 14.2198 13.3743C14.2375 13.0004 14.4452 12.7769 14.8271 12.7462C15.1957 12.7163 15.4891 12.9359 15.5059 13.3404C15.5386 14.0859 15.5324 14.8347 15.5015 15.5803C15.4856 15.9557 15.2204 16.1593 14.8412 16.1432C14.4647 16.1271 14.241 15.9066 14.2225 15.5291C14.2092 15.2752 14.2127 15.0205 14.2154 14.7658C14.2172 14.6538 14.218 14.5417 14.218 14.4298H14.2163C14.2163 14.3223 14.2154 14.2146 14.2136 14.107ZM12.6915 6.99329C12.6898 6.88909 12.688 6.7849 12.688 6.6808H12.6845C12.6845 6.57282 12.6862 6.46467 12.688 6.35652C12.6924 6.11214 12.6968 5.86785 12.6792 5.62506C12.6491 5.20952 12.3592 4.9318 12.0012 4.96462C11.6078 5.00061 11.3824 5.23469 11.3754 5.63034C11.3639 6.31982 11.3568 7.00992 11.378 7.69878C11.3913 8.14107 11.6458 8.37753 12.0312 8.37568C12.4113 8.37383 12.6544 8.13649 12.6836 7.69289C12.6995 7.46048 12.6951 7.22693 12.6915 6.99329Z" fill="#FF9D09"/>
</svg>
