<svg width="20" height="20" viewBox="0 0 20 20" fill="none" xmlns="http://www.w3.org/2000/svg">
<g opacity="0.4">
<path d="M16.4923 4H3.50766C2.74514 4 2.12305 4.62142 2.12305 5.38462V14.6154C2.12305 15.376 2.74237 16 3.50766 16H16.4923C17.2529 16 17.8769 15.3807 17.8769 14.6154V5.38462C17.8769 4.624 17.2576 4 16.4923 4ZM16.3011 4.92308L10.0293 11.1949L3.70332 4.92308H16.3011ZM3.04612 14.4242V5.57135L7.49163 9.97874L3.04612 14.4242ZM3.69883 15.0769L8.14714 10.6286L9.70582 12.1739C9.88625 12.3528 10.1774 12.3522 10.3571 12.1725L11.8769 10.6527L16.3011 15.0769H3.69883ZM16.9538 14.4242L12.5296 10L16.9538 5.57575V14.4242Z" fill="#283746"/>
</g>
</svg>
