<svg width="24" height="24" viewBox="0 0 24 24" fill="none" xmlns="http://www.w3.org/2000/svg">
<path d="M12.002 20.25C12.002 20.25 2.62695 15 2.62695 8.62501C2.62714 7.49826 3.01757 6.40635 3.73184 5.53493C4.44611 4.66351 5.44015 4.06636 6.54494 3.84501C7.64974 3.62367 8.79709 3.79179 9.79194 4.32079C10.7868 4.84979 11.5677 5.70702 12.002 6.74673L12.0019 6.74673C12.4362 5.70702 13.2171 4.84979 14.212 4.32079C15.2068 3.79179 16.3542 3.62367 17.459 3.84501C18.5638 4.06636 19.5578 4.66351 20.2721 5.53493C20.9863 6.40635 21.3768 7.49826 21.377 8.62501C21.377 15 12.002 20.25 12.002 20.25Z" stroke="#040E20" stroke-width="0.895105" stroke-linecap="round" stroke-linejoin="round"/>
</svg>
