<svg width="24" height="24" viewBox="0 0 24 24" fill="none" xmlns="http://www.w3.org/2000/svg">
<path fill-rule="evenodd" clip-rule="evenodd" d="M18.5542 21.7632C19.8315 21.2641 21.1522 20.7481 22.4535 20.247C22.683 20.1587 22.7682 20.0334 22.7678 19.7851C22.7623 16.6166 22.7623 13.3955 22.7622 10.2781V10.1947L22.7621 7.64717C22.7621 7.59084 22.759 7.53415 22.7558 7.47426L22.7556 7.47203C22.7539 7.44165 22.7521 7.40957 22.7506 7.37504L22.7449 7.24521L22.6232 7.29076L22.5154 7.33068C22.4489 7.35515 22.3906 7.37669 22.3327 7.39961C22.1524 7.47094 21.972 7.54209 21.7916 7.6132C21.2068 7.84375 20.6021 8.08214 20.0109 8.32587C19.8604 8.38791 19.716 8.50365 19.6341 8.62795C18.7502 9.9686 17.8663 11.3261 17.0067 12.6628C16.9186 12.7998 16.8658 12.9814 16.8654 13.1484C16.8594 15.6019 16.8596 18.0963 16.8599 20.5087L16.86 22.4135L16.9866 22.3677C17.0239 22.3541 17.0573 22.3422 17.088 22.3313L17.0984 22.3276C17.1637 22.3043 17.2171 22.2853 17.2698 22.2647C17.6302 22.1241 17.9906 21.9834 18.351 21.8426L18.5542 21.7632ZM16.319 11.4263C16.3394 11.4099 16.3587 11.3943 16.3745 11.37C16.6801 10.9 16.9948 10.4243 17.2991 9.9643C17.9936 8.91472 18.7117 7.82948 19.3722 6.73337C20.0314 5.63967 20.0608 4.30205 19.451 3.15534C18.8464 2.01855 17.7361 1.30176 16.4811 1.23794C15.0366 1.16443 13.8813 1.76882 13.1418 2.98583C12.3893 4.22424 12.3849 5.52794 13.1293 6.75591C13.7987 7.86038 14.5229 8.96022 15.2233 10.0238C15.5265 10.4842 15.84 10.9603 16.1464 11.4326L16.2062 11.5248L16.2884 11.4519C16.3003 11.4414 16.3104 11.4333 16.319 11.4263ZM15.6317 22.2009V21.5214C15.6317 18.7479 15.6317 15.8799 15.6264 13.059C15.6261 12.9502 15.5833 12.8216 15.5088 12.7063C14.5198 11.1758 13.7527 9.99836 13.0217 8.8886C12.9445 8.77129 12.8068 8.66565 12.671 8.61954C11.586 8.25077 10.4805 7.88351 9.4113 7.52833L9.40909 7.52759L8.73529 7.3037C8.68167 7.28589 8.62809 7.27091 8.5714 7.25509C8.54471 7.24762 8.51712 7.23992 8.48844 7.23161L8.36764 7.19655V20.0963L15.611 22.47L15.6205 22.3503C15.6223 22.3282 15.624 22.3092 15.6257 22.2923C15.6289 22.2591 15.6317 22.2305 15.6317 22.2009ZM2.92493 21.6114C4.19972 21.1544 5.51781 20.6818 6.81666 20.2244C7.05043 20.142 7.13721 20.019 7.13674 19.7706C7.13111 16.4405 7.13135 13.0549 7.13159 9.77898L7.13159 9.71433L7.13164 7.24068L6.89102 7.33186L6.89079 7.33195C6.81917 7.35889 6.75593 7.38267 6.69321 7.40754C6.35451 7.54215 6.01587 7.67688 5.67724 7.81161L5.46586 7.89572C4.17458 8.40959 2.83937 8.94094 1.52334 9.45605C1.30573 9.54123 1.22494 9.66156 1.22523 9.9C1.22962 13.2015 1.22906 16.5583 1.22849 19.8046L1.2282 22.2025L1.35085 22.1642C1.38472 22.1536 1.41553 22.1443 1.4443 22.1357L1.45015 22.1339C1.50537 22.1172 1.55357 22.1027 1.60191 22.0853C2.04156 21.9281 2.48121 21.7705 2.92082 21.6129L2.92493 21.6114ZM20.8753 6.4929L20.8466 6.65797L24 5.42953V20.959L22.362 21.5984C20.7181 22.2399 19.0743 22.8814 17.4311 23.5247C17.163 23.6296 16.8936 23.7429 16.6331 23.8524L16.6303 23.8535L16.6115 23.8615C16.5012 23.9078 16.3909 23.9541 16.2804 24H16.2737L16.2425 23.9841C16.2023 23.9634 16.1607 23.942 16.1139 23.9267L15.5643 23.7464L15.5204 23.732C13.0514 22.9221 10.4996 22.0851 7.98676 21.27C7.8455 21.2241 7.65458 21.2296 7.50033 21.2838C5.85321 21.8632 4.18554 22.4614 2.75169 22.9767C2.10681 23.2085 1.45241 23.4471 0.819089 23.6781L0.80348 23.6838C0.541465 23.7795 0.279354 23.8751 0.0172914 23.9705C0.00869301 23.9388 0.00198435 23.9089 0.00198435 23.8822C-2.09161e-06 20.4962 0 17.1103 0 13.7243V13.4939V8.74663C0.00788986 8.74209 0.0154017 8.73817 0.0221103 8.73548L0.791953 8.4292L0.836697 8.4114C3.05233 7.52992 5.3421 6.61896 7.59694 5.72939C7.67249 5.69962 7.7922 5.70061 7.88816 5.73198C8.77154 6.02014 9.66774 6.31902 10.535 6.60824L10.5519 6.61389C10.8414 6.71046 11.1309 6.80702 11.4205 6.90335C11.4659 6.91848 11.5122 6.93167 11.5655 6.94685L11.5689 6.94781C11.5973 6.95584 11.6284 6.96468 11.6633 6.97493L11.8411 7.02695L11.7412 6.74641C11.7216 6.69132 11.7066 6.6489 11.6912 6.60657C11.2184 5.30872 11.2834 3.93066 11.874 2.72622C12.4612 1.52882 13.5022 0.639732 14.8053 0.222756C15.0132 0.156283 15.2339 0.109654 15.4472 0.0645827L15.451 0.0637856C15.5468 0.0435302 15.6458 0.0226166 15.7432 0H16.709C16.7151 0.00215328 16.7213 0.0044156 16.7274 0.00668343C16.7293 0.00740104 16.7313 0.00811921 16.7332 0.00883465L16.7334 0.00890659C16.766 0.0210308 16.803 0.0347823 16.8443 0.0401575C18.1146 0.20537 19.2475 0.836268 20.0342 1.81663C20.8217 2.79784 21.1915 4.04135 21.0757 5.31813C21.0518 5.58189 21.0011 5.83946 20.9474 6.11216C20.9229 6.23627 20.8977 6.36463 20.8753 6.4929ZM16.2429 5.71358C16.6476 5.71358 17.0193 5.34309 17.0461 4.90448C17.0585 4.7027 16.984 4.49558 16.8417 4.33628C16.6966 4.17376 16.4939 4.07435 16.2853 4.06354C16.0731 4.05262 15.8675 4.12646 15.7072 4.27174C15.5482 4.41583 15.4552 4.61062 15.4454 4.82024C15.4348 5.04711 15.5194 5.27662 15.6776 5.44996C15.8243 5.61069 16.0146 5.70409 16.2135 5.71297C16.2233 5.71339 16.2331 5.71358 16.2429 5.71358ZM17.6834 3.43628C18.0677 3.82212 18.2778 4.3315 18.2751 4.87061C18.2722 5.41651 18.042 5.95543 17.6434 6.34916C17.2562 6.7316 16.7587 6.94169 16.241 6.94169L16.2274 6.94165C15.1363 6.93395 14.2156 5.98108 14.2167 4.86087C14.218 3.74516 15.1242 2.83623 16.2369 2.83476H16.2396C16.7843 2.83476 17.297 3.04835 17.6834 3.43628Z" fill="#FF9D09"/>
</svg>
