<svg width="20" height="20" viewBox="0 0 20 20" fill="none" xmlns="http://www.w3.org/2000/svg">
<g opacity="0.4">
<path fill-rule="evenodd" clip-rule="evenodd" d="M13.8275 11.5139C14.2855 11.5139 14.7176 11.7133 15.0758 12.0863L17.1032 14.1211C17.4762 14.4904 17.672 14.9299 17.672 15.3878C17.672 15.8421 17.4799 16.2852 17.1143 16.6656C16.9555 16.8318 16.793 16.9906 16.6342 17.142C16.617 17.1587 16.5998 17.1753 16.5827 17.1919C16.3689 17.3986 16.1658 17.595 15.9879 17.8105C15.9861 17.8142 15.9833 17.8169 15.9806 17.8197C15.9778 17.8225 15.975 17.8252 15.9732 17.8289C15.4118 18.4383 14.6954 18.7448 13.8423 18.7448C13.7684 18.7448 13.6872 18.7411 13.6096 18.7374C12.3429 18.6562 11.2092 18.1798 10.3598 17.7772C8.13659 16.7026 6.19037 15.1773 4.57283 13.2459C3.23965 11.6431 2.34594 10.1474 1.74767 8.53359C1.50393 7.87624 1.18633 6.87174 1.27496 5.79337C1.33405 5.12494 1.60364 4.54883 2.07635 4.07612L3.33197 2.80942L3.33936 2.80203C3.70866 2.4475 4.14444 2.25916 4.59499 2.25916C5.04553 2.25916 5.47392 2.4475 5.83215 2.80203C6.07219 3.02361 6.30485 3.25996 6.52643 3.48893C6.63723 3.60711 6.7554 3.72528 6.86989 3.83977L7.87808 4.84796C8.65361 5.6235 8.65361 6.628 7.87808 7.40353C7.82638 7.45523 7.77468 7.50786 7.72297 7.56048C7.67127 7.61311 7.61957 7.66574 7.56787 7.71744C7.5415 7.74416 7.51507 7.77098 7.48855 7.79789C7.24022 8.04989 6.9847 8.30919 6.71109 8.55945C6.93636 9.058 7.24657 9.54917 7.7082 10.1327C8.661 11.3034 9.65442 12.2081 10.7476 12.9024C10.8547 12.9689 10.9802 13.0317 11.1132 13.0982C11.1445 13.1144 11.1762 13.1307 11.2082 13.1471C11.2706 13.1792 11.3341 13.2117 11.3975 13.2459L12.5645 12.0826C12.9375 11.7096 13.3733 11.5139 13.8275 11.5139ZM16.032 16.3435C16.1593 16.2198 16.28 16.1024 16.3983 15.975C16.775 15.5835 16.775 15.1958 16.3946 14.8191L14.3597 12.7842L14.3524 12.7768C14.2379 12.6513 14.0495 12.5073 13.8206 12.5073C13.5879 12.5073 13.3885 12.6587 13.2629 12.7842L11.9999 14.0472C11.9371 14.11 11.7451 14.3021 11.4386 14.3021C11.3167 14.3021 11.1985 14.2725 11.073 14.2097C11.0656 14.206 11.0582 14.2014 11.0508 14.1968C11.0434 14.1922 11.036 14.1876 11.0286 14.1839C10.9215 14.1174 10.796 14.0546 10.663 13.9882L10.663 13.9881C10.5153 13.9143 10.3602 13.8367 10.2088 13.7407C9.02333 12.991 7.94867 12.0124 6.92939 10.7568L6.9257 10.7531C6.36436 10.0403 5.99506 9.44205 5.73285 8.80685L5.72178 8.77361C5.6553 8.56311 5.59621 8.2529 5.91381 7.9353C5.9162 7.93053 5.92012 7.9273 5.92459 7.92362C5.92704 7.9216 5.92966 7.91945 5.93228 7.91683C6.25357 7.62878 6.54901 7.33333 6.85922 7.01573C6.93049 6.94693 7.00011 6.87649 7.07028 6.8055C7.10557 6.76981 7.14099 6.73397 7.17682 6.69814C7.56828 6.30668 7.56828 5.94476 7.17682 5.5533L6.16863 4.54511C6.11001 4.48465 6.05139 4.42511 5.99322 4.36602C5.93412 4.30599 5.87549 4.24644 5.81779 4.18688C5.59252 3.95422 5.37832 3.73633 5.15305 3.52583L5.14197 3.51475C5.02379 3.39658 4.83545 3.25624 4.60279 3.25624C4.41445 3.25624 4.22241 3.34857 4.04145 3.51845L2.78213 4.77777C2.47561 5.08429 2.30943 5.44251 2.2725 5.87459C2.2171 6.55041 2.34266 7.26686 2.68611 8.18642C3.24376 9.69317 4.08577 11.0965 5.34509 12.6144C6.8703 14.435 8.70573 15.8716 10.796 16.8835C11.5604 17.2491 12.5797 17.6775 13.6765 17.7476C13.7319 17.7513 13.791 17.7513 13.8464 17.7513C14.4225 17.7513 14.862 17.563 15.235 17.1642C15.464 16.8946 15.7077 16.6545 15.9477 16.4255C15.9762 16.3978 16.0042 16.3705 16.032 16.3435Z" fill="#283746"/>
<path d="M10.7033 5.40931C11.6709 5.5718 12.5499 6.02973 13.2515 6.73141C13.9532 7.43308 14.4074 8.31202 14.5736 9.27959C14.6143 9.52333 14.8248 9.69321 15.0648 9.69321C15.0943 9.69321 15.1202 9.68951 15.1497 9.68582C15.423 9.64151 15.604 9.38299 15.5597 9.10971C15.3602 7.93902 14.8063 6.87174 13.9606 6.02604C13.1149 5.18034 12.0476 4.62639 10.8769 4.42696C10.6036 4.38265 10.3488 4.5636 10.3008 4.83319C10.2528 5.10279 10.4301 5.36499 10.7033 5.40931Z" fill="#283746"/>
<path d="M18.7247 8.96563C18.396 7.03788 17.4875 5.28369 16.0916 3.88773C14.6956 2.49177 12.9414 1.58329 11.0137 1.25461C10.7441 1.2066 10.4893 1.39125 10.4412 1.66084C10.3969 1.93413 10.5779 2.18894 10.8512 2.23695C12.5721 2.5287 14.1416 3.34486 15.3899 4.58941C16.6381 5.83765 17.4506 7.40718 17.7423 9.12813C17.783 9.37187 17.9935 9.54174 18.2335 9.54174C18.2631 9.54174 18.2889 9.53805 18.3184 9.53436C18.588 9.49373 18.7727 9.23522 18.7247 8.96563Z" fill="#283746"/>
</g>
</svg>
