<svg width="20" height="20" viewBox="0 0 20 20" fill="none" xmlns="http://www.w3.org/2000/svg">
<g opacity="0.4">
<path fill-rule="evenodd" clip-rule="evenodd" d="M6.36035 5.73554C6.36035 3.67578 7.99364 2 10.0013 2C12.0089 2 13.6422 3.67578 13.6422 5.73557C13.6422 7.79537 12.0089 9.47115 10.0013 9.47115C7.99368 9.47115 6.36035 7.79537 6.36035 5.73554ZM7.34037 5.73552C7.34037 7.24061 8.53381 8.4651 10.0008 8.4651C11.4677 8.4651 12.6612 7.24061 12.6612 5.73552C12.6612 4.23045 11.4677 3.00596 10.0008 3.00596C8.53384 3.00596 7.34037 4.23045 7.34037 5.73552Z" fill="#283746"/>
<path fill-rule="evenodd" clip-rule="evenodd" d="M3.20898 17.4755C3.20898 13.6333 6.25571 10.5074 10.0006 10.5074C13.7456 10.5074 16.7922 13.6333 16.7922 17.4755C16.7922 17.7533 16.5727 17.9785 16.302 17.9785H3.69924C3.42849 17.9785 3.20898 17.7533 3.20898 17.4755ZM10.0007 11.5133C6.96149 11.5133 4.45974 13.9194 4.21003 16.9725H15.7913C15.5416 13.9194 13.0399 11.5133 10.0007 11.5133Z" fill="#283746"/>
</g>
</svg>
