<?xml version="1.0" encoding="UTF-8"?>
<svg width="24px" height="20px" viewBox="0 0 24 20" version="1.1" xmlns="http://www.w3.org/2000/svg" xmlns:xlink="http://www.w3.org/1999/xlink">
    <!-- Generator: Sketch 58 (84663) - https://sketch.com -->
    <title>icon/24px/Chart</title>
    <desc>Created with Sketch.</desc>
    <g id="Page-1" stroke="none" stroke-width="1" fill="none" fill-rule="evenodd">
        <g id="Home" transform="translate(-26.000000, -1025.000000)" fill="#F9A05D">
            <g id="Group-24" transform="translate(0.000000, 977.000000)">
                <g id="tabbar">
                    <g id="tb/trangchu">
                        <g transform="translate(0.000000, 40.000000)">
                            <g id="Group-7" transform="translate(13.000000, 6.000000)">
                                <g id="icon/24px/Chart" transform="translate(13.000000, 0.000000)">
                                    <path d="M23.7733458,11.3762789 L12.9879547,2.66414228 L12.3893757,2.16716588 C12.1636294,1.97927804 11.8362136,1.97927804 11.6104673,2.16716588 L8.49811078,4.75177757 L8.49811078,3.65883083 C8.49811078,3.32205073 8.22507476,3.04901471 7.88829466,3.04901471 L5.56340833,3.04901471 C5.22662823,3.04901471 4.95359221,3.32205073 4.95359221,3.65883083 L4.95359221,7.68460716 L0.22415616,11.5429633 C-0.0366393931,11.7559341 -0.0755680957,12.1400039 0.137402676,12.4010001 C0.257800726,12.548889 0.433180551,12.6254756 0.610031908,12.6254756 C0.74561349,12.6254756 0.882064612,12.580527 0.995439442,12.4882887 L2.84033889,10.9830455 L2.84033889,21.0796928 C2.84033889,21.4164729 3.11337491,21.6895089 3.45015501,21.6895089 L9.96730143,21.6895089 C10.3040815,21.6895089 10.5771175,21.4164729 10.5771175,21.0796928 L10.5771175,16.3479157 L13.4227254,16.3479157 L13.4227254,21.0796928 C13.4227254,21.4164729 13.6957615,21.6895089 14.0328091,21.6895089 L20.549688,21.6895089 C20.8864681,21.6895089 21.1595041,21.4164729 21.1595041,21.0796928 L21.1595041,10.8328155 L23.0067446,12.3249487 C23.1195844,12.4161836 23.2552328,12.4605971 23.3898111,12.4605971 C23.5674651,12.4605971 23.7440489,12.3832079 23.8645138,12.2340481 C24.0761469,11.9717142 24.0354122,11.5879119 23.7733458,11.3762789 Z M6.17322445,4.26864695 L7.27841165,4.26864695 L7.27841165,5.72211896 L6.17322445,6.61674335 L6.17322445,4.26864695 Z M19.939805,10.0225366 L19.939805,20.4696092 L14.6426252,20.4696092 L14.6426252,15.7380996 C14.6426252,15.4013195 14.3695892,15.1282166 14.0328091,15.1282166 L9.96730143,15.1282166 C9.63025378,15.1282166 9.35741842,15.4013195 9.35741842,15.7380996 L9.35741842,20.4696092 L4.06023868,20.4696092 L4.06023868,10.0225366 L6.43107694,8.0535603 C6.43107694,8.0535603 11.9827648,3.50465444 12.0180815,3.44405409 L19.939805,10.0225366 Z" id="Fill-1"></path>
                                </g>
                            </g>
                        </g>
                    </g>
                </g>
            </g>
        </g>
    </g>
</svg>