<?xml version="1.0" encoding="UTF-8"?>
<svg width="24px" height="24px" viewBox="0 0 24 24" version="1.1" xmlns="http://www.w3.org/2000/svg" xmlns:xlink="http://www.w3.org/1999/xlink">
    <!-- Generator: Sketch 58 (84663) - https://sketch.com -->
    <title>icon/24px/billd</title>
    <desc>Created with Sketch.</desc>
    <g id="Page-1" stroke="none" stroke-width="1" fill="none" fill-rule="evenodd">
        <g id="Home" transform="translate(-326.000000, -1023.000000)" fill="#4F4F4F">
            <g id="Group-24" transform="translate(0.000000, 977.000000)">
                <g id="tabbar">
                    <g id="tb/taikhoan">
                        <g transform="translate(300.000000, 40.000000)">
                            <g id="Group" transform="translate(18.000000, 6.000000)">
                                <g id="icon/24px/bill" transform="translate(8.000000, 0.000000)">
                                    <path d="M12.0001311,0 C5.38480982,0 0,5.38480982 0,12.0001311 C0,15.1538139 1.23059889,18.0350307 3.23086841,20.1749861 C3.27282661,20.2309303 3.32169042,20.2866123 3.37772209,20.328658 C5.55963563,22.58732 8.62249644,24 12.0001311,24 C18.6155398,24 24,18.6155398 24,12.0001311 C24,5.38480982 18.6155398,0 12.0001311,0 Z M4.99311259,20.1117865 C8.25160348,19.0491953 9.39863563,17.7553968 9.79706365,16.9161455 C10.3987267,17.1889612 11.0700578,17.3285596 11.8253053,17.3425457 L11.9789772,17.3425457 C12.7902564,17.3285596 13.5176192,17.1609017 14.1540725,16.8461278 C14.5245284,17.6782112 15.643501,19.0212231 18.9999818,20.1117865 C17.1189435,21.7344323 14.6713821,22.7273555 11.9929633,22.7273555 C9.32179969,22.7273555 6.87423832,21.7412505 4.99311259,20.1117865 Z M11.9229455,16.0771565 L11.881337,16.0771565 C10.7691826,16.0631704 9.92311306,15.7135188 9.29374014,15.0002295 C7.69915392,13.2099257 8.04880554,9.79706365 8.04880554,9.76227332 L8.04880554,9.72022771 C8.21681314,6.01409533 10.9579945,5.72729359 11.7973332,5.72729359 L12.0141172,5.72729359 C12.846288,5.72729359 15.5874694,6.01409533 15.7622952,9.72022771 L15.7622952,9.76227332 C15.7691134,9.79706365 16.1119468,13.2027579 14.5173606,15.0002295 C13.8812569,15.7135188 13.0350999,16.0631704 11.9229455,16.0771565 Z M20.0281324,19.1048773 C15.3986575,17.762215 15.2446359,16.118765 15.2446359,16.1047789 L15.2446359,16.1400063 L15.1750553,16.1400063 C15.2726955,16.0491843 15.3706854,15.951107 15.4615074,15.846299 C17.3706052,13.692445 17.0560936,9.9998616 17.0209536,9.65020997 C16.8393096,5.8181156 14.2097546,4.45464909 12.0069493,4.45464909 L11.7833471,4.45464909 C9.58744751,4.45464909 6.95824213,5.81120998 6.76934284,9.64339177 C6.73420285,9.98587553 6.41252336,13.6852771 8.32878908,15.8391311 C8.44767063,15.9719987 8.58045083,16.0979607 8.70650024,16.2168423 C8.6012551,16.5664939 7.91602534,17.9442087 3.95814379,19.0979717 C2.27955376,17.2029473 1.25857102,14.7201585 1.25857102,11.9929633 C1.25857102,6.07694521 6.07003959,1.25857102 11.9929633,1.25857102 C17.9162366,1.25857102 22.7273892,6.07003959 22.7273892,11.9929633 C22.7341737,14.7201585 21.7063728,17.2097655 20.0281324,19.1048773 Z" id="Fill-2"></path>
                                </g>
                            </g>
                        </g>
                    </g>
                </g>
            </g>
        </g>
    </g>
</svg>