<svg xml:space="preserve" viewBox="0 0 100 100" y="0" x="0" xmlns="http://www.w3.org/2000/svg" id="圖層_1" version="1.1" style="height: 100%; width: 100%; background: rgb(241, 242, 243);" width="250px" height="250px">
    <g class="ldl-scale" style="transform-origin: 50% 50%; transform: rotate(0deg) scale(0.8, 0.8);">
        <g class="ldl-ani">
            <g class="ldl-layer">
                <g class="ldl-ani" style="transform: scale(0.91); transform-origin: 50px 50px; animation: 1.11111s linear -0.833333s infinite normal forwards running breath-b747361c-04b1-4124-b717-0f8315aaa011;">
                    <path fill="#d1d1d1" d="M88.398 28.001c-3.569-8.084-11.712-13.308-20.745-13.308-6.737 0-12.843 2.827-17.194 7.959-.156.184-.307.369-.456.554-4.322-5.376-10.657-8.41-17.741-8.41-4.408 0-8.792 1.268-12.344 3.569-7.924 5.135-11.546 14.101-9.227 22.841 1.534 5.783 4.575 11.027 9.04 15.588 6.308 6.443 12.774 12.932 19.027 19.207 2.423 2.432 4.847 4.864 7.267 7.299.647.652 1.993 2.006 3.947 2.006 1.947 0 3.281-1.34 3.923-1.984l4.319-4.334c6.878-6.903 13.757-13.806 20.626-20.718 4.374-4.4 7.272-8.588 9.122-13.176 2.564-6.36 2.707-11.952.436-17.093z" style="fill: rgb(152, 26, 35);"></path>
                </g>
            </g>
            <g class="ldl-layer">
                <g class="ldl-ani" style="transform: scale(0.91); transform-origin: 50px 50px; animation: 1.11111s linear -1.11111s infinite normal forwards running breath-b747361c-04b1-4124-b717-0f8315aaa011;">
                    <path fill="#464646" d="M85.548 29.26c-5.655-12.807-23.359-15.624-32.711-4.593-.988 1.167-1.851 2.442-2.924 3.868-.387-.583-.706-1.047-1.009-1.521-6.411-10.049-19.119-11.328-27.29-6.033-6.464 4.189-10 11.546-7.91 19.426 1.461 5.509 4.328 10.196 8.254 14.206 8.701 8.887 17.51 17.668 26.278 26.49 1.434 1.443 2.03 1.446 3.451.02 8.316-8.347 16.636-16.693 24.942-25.05 3.528-3.549 6.551-7.453 8.442-12.144 1.949-4.834 2.655-9.736.477-14.669zm-5.562 12.886c-.694 1.926-4.418 1.106-3.719-.829.999-2.771 1.378-5.896-.242-8.581-1.59-2.633-4.174-4.577-7.166-6.178-2.063-1.104-.33-3.31 1.947-2.691 4.955 1.346 7.515 3.968 9.267 8.099 1.446 3.415 1.133 6.796-.087 10.18z" style="fill: rgb(225, 91, 100);"></path>
                </g>
            </g>
            <metadata xmlns:d="https://loading.io/stock/">
                <d:name>heart</d:name>
                <d:tags>life,hp,like,favorite,love,enamor,heart,map</d:tags>
                <d:license>by</d:license>
                <d:slug>kvxuee</d:slug>
            </metadata>
        </g>
    </g>
</svg>