<?xml version="1.0" encoding="UTF-8"?>
<svg height="18px" version="1.1" viewBox="0 0 18 18" width="18px"
    xmlns="http://www.w3.org/2000/svg">
    <!-- Generator: Sketch 58 (84663) - https://sketch.com -->
    <title>landscape</title>
    <desc>Created with Sketch.</desc>
    <g fill="none" fill-rule="evenodd" id="Page-1" stroke="none" stroke-width="1">
        <g fill="#BC9E74" id="Change-Pass" transform="translate(-17.000000, -693.000000)">
            <g id="Group-7" transform="translate(0.000000, 674.000000)">
                <g id="pop-up" transform="translate(16.000000, 2.000000)">
                    <g id="Group-2" transform="translate(1.000000, 0.000000)">
                        <g id="landscape" transform="translate(0.000000, 17.000000)">
                            <path
                                d="M17.37864,18.00072 L0.51192,18.00072 C0.22752,18.00072 0,17.77032 0,17.4888 L0,0.6228 C0,0.34128 0.22752,0.11088 0.51192,0.11088 L17.37864,0.11088 C17.65944,0.11088 17.89056,0.34128 17.89056,0.6228 L17.89056,17.4888 C17.89056,17.77032 17.65944,18.00072 17.37864,18.00072 Z M1.02384,16.97976 L16.86672,16.97976 L16.86672,1.134 L1.02384,1.134 L1.02384,16.97976 Z"
                                id="Fill-1"></path>
                            <path
                                d="M0.51192,18.00072 C0.38808,18.00072 0.26712,17.95896 0.16848,17.86896 C-0.0396,17.68032 -0.05616,17.35704 0.1296,17.14896 L5.24232,11.45592 C5.3352,11.35512 5.4648,11.2932 5.59944,11.28744 C5.7348,11.28168 5.87232,11.3328 5.97384,11.42496 L7.30152,12.67128 L11.32848,8.69184 C11.52288,8.50032 11.8296,8.49456 12.02904,8.67456 L17.72136,13.80456 C17.82864,13.90032 17.89056,14.03784 17.89056,14.184 L17.89056,17.4888 C17.89056,17.77032 17.66232,17.99784 17.37864,17.99784 L11.68848,17.99784 C11.5596,17.99784 11.43288,17.95032 11.33712,17.86032 L5.65344,12.528 L0.89136,17.82936 C0.79056,17.94168 0.64944,18.00072 0.51192,18.00072 Z M11.88864,16.97976 L16.86672,16.97976 L16.86672,14.41224 L11.70576,9.75744 L8.04672,13.374 L11.88864,16.97976 Z"
                                id="Fill-3"></path>
                            <path
                                d="M5.77656,9.2088 C4.4244,9.2088 3.32136,8.10648 3.32136,6.75648 C3.32136,5.40072 4.4244,4.30128 5.77656,4.30128 C7.12944,4.30128 8.2296,5.40072 8.2296,6.75648 C8.2296,8.10648 7.12944,9.2088 5.77656,9.2088 Z M5.77656,5.32512 C4.98672,5.32512 4.3452,5.96592 4.3452,6.75648 C4.3452,7.54416 4.98672,8.18496 5.77656,8.18496 C6.56424,8.18496 7.20576,7.54416 7.20576,6.75648 C7.20576,5.96592 6.56424,5.32512 5.77656,5.32512 Z"
                                id="Fill-5"></path>
                        </g>
                    </g>
                </g>
            </g>
        </g>
    </g>
</svg>