<svg width="24" height="24" viewBox="0 0 24 24" fill="none" xmlns="http://www.w3.org/2000/svg">
<path d="M13.8324 5.8259L13.8344 5.82719C14.2529 6.10374 14.5 6.56631 14.5 7.07003V12.75H3.5V7.07003C3.5 6.57083 3.75347 6.10483 4.16837 5.82537C4.16861 5.82521 4.16885 5.82505 4.16909 5.82489L8.16759 3.15589L8.16878 3.1551C8.67018 2.81834 9.32982 2.81834 9.83122 3.1551L9.83241 3.15589L13.8324 5.8259ZM6.75 9.00003C6.75 10.2362 7.76386 11.25 9 11.25C10.2361 11.25 11.25 10.2362 11.25 9.00003C11.25 7.76388 10.2361 6.75003 9 6.75003C7.76386 6.75003 6.75 7.76388 6.75 9.00003Z" fill="#0D2A5C" stroke="#0D2A5C"/>
<path d="M20.23 21.25V21.75H20.73H22C22.1339 21.75 22.25 21.8661 22.25 22C22.25 22.1339 22.1339 22.25 22 22.25H20.03C20.0125 22.25 19.9958 22.2508 19.98 22.2522C19.9642 22.2508 19.9475 22.25 19.93 22.25H2C1.86614 22.25 1.75 22.1339 1.75 22C1.75 21.8661 1.86614 21.75 2 21.75H3H3.5V21.25V15.25H14.5V21.25V21.75H15H19.22H19.72V21.25V18.24V17.8833L19.3827 17.7672C18.644 17.513 18.11 16.8156 18.11 16V14C18.11 12.9661 18.9561 12.12 19.99 12.12C21.0239 12.12 21.87 12.9661 21.87 14V16C21.87 16.8249 21.3276 17.529 20.5749 17.7747L20.23 17.8872V18.25V21.25ZM9.75 21.75H10.25V21.25V18.25C10.25 17.5639 9.68614 17 9 17C8.31386 17 7.75 17.5639 7.75 18.25V21.25V21.75H8.25H9.75Z" fill="#0D2A5C" stroke="#0D2A5C"/>
</svg>
