<svg width="16" height="17" viewBox="0 0 16 17" fill="none" xmlns="http://www.w3.org/2000/svg">
<g clip-path="url(#clip0_835_13091)">
<path d="M12.6518 9.91516C12.3238 9.57409 11.9281 9.39173 11.5087 9.39173C11.0928 9.39173 10.6937 9.57071 10.3522 9.91178L9.2835 10.9755C9.19557 10.9282 9.10764 10.8843 9.0231 10.8404C8.90135 10.7796 8.78637 10.7222 8.6883 10.6615C7.68728 10.0266 6.77757 9.19925 5.90506 8.12877C5.48233 7.59522 5.19825 7.14609 4.99196 6.69021C5.26927 6.43694 5.52629 6.17354 5.77655 5.92027C5.87124 5.82572 5.96593 5.72779 6.06062 5.63323C6.7708 4.92408 6.7708 4.00556 6.06062 3.29641L5.13738 2.37452C5.03254 2.26983 4.92433 2.16177 4.82287 2.05371C4.61996 1.84434 4.40691 1.62822 4.18709 1.4256C3.85905 1.10142 3.46676 0.929199 3.05418 0.929199C2.64159 0.929199 2.24254 1.10142 1.90436 1.4256C1.90097 1.42898 1.90097 1.42898 1.89759 1.43236L0.747772 2.59064C0.314898 3.02288 0.0680249 3.54968 0.0139157 4.1609C-0.0672481 5.14696 0.223589 6.06548 0.446789 6.66657C0.994645 8.14228 1.81305 9.50993 3.03389 10.9755C4.51513 12.7416 6.29735 14.1363 8.33321 15.119C9.11103 15.4871 10.1492 15.9227 11.3092 15.997C11.3802 16.0003 11.4546 16.0037 11.5223 16.0037C12.3035 16.0037 12.9595 15.7234 13.4736 15.1662C13.477 15.1595 13.4837 15.1561 13.4871 15.1494C13.663 14.9366 13.8659 14.7441 14.0789 14.5381C14.2243 14.3997 14.3731 14.2545 14.5186 14.1025C14.8534 13.7547 15.0292 13.3495 15.0292 12.9341C15.0292 12.5154 14.85 12.1135 14.5084 11.7758L12.6518 9.91516ZM13.8625 13.471C13.8591 13.471 13.8591 13.4744 13.8625 13.471C13.7306 13.6129 13.5953 13.7412 13.4499 13.883C13.2301 14.0924 13.0069 14.3119 12.7972 14.5584C12.4557 14.9231 12.0532 15.0953 11.5256 15.0953C11.4749 15.0953 11.4208 15.0953 11.3701 15.092C10.3657 15.0278 9.4323 14.6361 8.73226 14.3018C6.81815 13.3765 5.13738 12.0629 3.74069 10.3981C2.58748 9.01014 1.81643 7.72692 1.30577 6.34914C0.991263 5.50829 0.876281 4.85317 0.927009 4.23519C0.960827 3.8401 1.11301 3.51254 1.3937 3.23225L2.5469 2.08073C2.71261 1.92539 2.88847 1.84096 3.06094 1.84096C3.274 1.84096 3.44647 1.96929 3.55469 2.07735C3.55807 2.08073 3.56145 2.0841 3.56483 2.08748C3.77112 2.27996 3.96727 2.4792 4.17356 2.69195C4.2784 2.80001 4.38662 2.90807 4.49483 3.01951L5.41807 3.9414C5.77655 4.29935 5.77655 4.63029 5.41807 4.98824C5.32 5.08617 5.22531 5.1841 5.12724 5.27866C4.84316 5.56907 4.57262 5.83923 4.2784 6.10262C4.27163 6.10938 4.26487 6.11275 4.26149 6.11951C3.97065 6.40992 4.02476 6.69358 4.08563 6.88607C4.08902 6.8962 4.0924 6.90633 4.09578 6.91646C4.33589 7.49729 4.67407 8.04435 5.18811 8.69609L5.19149 8.69947C6.12487 9.84762 7.10899 10.7425 8.19455 11.428C8.33321 11.5158 8.47524 11.5867 8.61052 11.6543C8.73226 11.715 8.84724 11.7725 8.94532 11.8332C8.95884 11.84 8.97237 11.8501 8.9859 11.8569C9.10088 11.9143 9.2091 11.9413 9.3207 11.9413C9.60139 11.9413 9.77725 11.7657 9.83474 11.7083L10.9913 10.5534C11.1063 10.4386 11.2889 10.3001 11.502 10.3001C11.7116 10.3001 11.8841 10.4318 11.989 10.5466C11.9923 10.55 11.9923 10.55 11.9957 10.5534L13.8591 12.4141C14.2074 12.7585 14.2074 13.1131 13.8625 13.471Z" fill="white"/>
<path d="M8.64728 3.80963C9.53332 3.95822 10.3382 4.37696 10.9807 5.01857C11.6233 5.66018 12.0393 6.46388 12.1914 7.34864C12.2286 7.57151 12.4214 7.72685 12.6412 7.72685C12.6683 7.72685 12.692 7.72347 12.719 7.7201C12.9693 7.67957 13.135 7.44319 13.0944 7.1933C12.9118 6.12282 12.4045 5.14689 11.6301 4.37358C10.8556 3.60027 9.87827 3.09373 8.80623 2.91138C8.55597 2.87085 8.32263 3.03632 8.27866 3.28284C8.2347 3.52935 8.39703 3.76911 8.64728 3.80963Z" fill="white"/>
<path d="M15.9929 7.06184C15.6919 5.2991 14.86 3.69506 13.5817 2.41859C12.3033 1.14212 10.697 0.311401 8.93166 0.0108564C8.68479 -0.0330434 8.45144 0.135802 8.40748 0.382316C8.36689 0.632208 8.5326 0.865214 8.78286 0.909114C10.3588 1.17589 11.7961 1.92219 12.9391 3.06021C14.0822 4.2016 14.8262 5.63679 15.0933 7.21043C15.1305 7.4333 15.3233 7.58864 15.5431 7.58864C15.5702 7.58864 15.5939 7.58526 15.6209 7.58189C15.8678 7.54474 16.0369 7.30836 15.9929 7.06184Z" fill="white"/>
</g>
<defs>
<clipPath id="clip0_835_13091">
<rect width="16" height="16" fill="white" transform="translate(0 0.00390625)"/>
</clipPath>
</defs>
</svg>
