<svg width="20" height="20" viewBox="0 0 20 20" fill="none" xmlns="http://www.w3.org/2000/svg">
<path d="M5 8V6.25C5 3.35375 5.83333 1 10 1C14.1667 1 15 3.35375 15 6.25V8" stroke="#2D9CEC" stroke-linecap="round" stroke-linejoin="round"/>
<path d="M10 16C11.1046 16 12 14.8807 12 13.5C12 12.1193 11.1046 11 10 11C8.89543 11 8 12.1193 8 13.5C8 14.8807 8.89543 16 10 16Z" stroke="#2D9CEC" stroke-linecap="round" stroke-linejoin="round"/>
<path d="M14.5 19H5.5C1.9 19 1 18.0833 1 14.4167V12.5833C1 8.91667 1.9 8 5.5 8H14.5C18.1 8 19 8.91667 19 12.5833V14.4167C19 18.0833 18.1 19 14.5 19Z" stroke="#2D9CEC" stroke-linecap="round" stroke-linejoin="round"/>
</svg>
