<svg width="16" height="17" viewBox="0 0 16 17" fill="none" xmlns="http://www.w3.org/2000/svg">
<path d="M8 3.60001C4.81333 3.60001 2.22 6.19334 2.22 9.38001C2.22 12.5667 4.81333 15.1667 8 15.1667C11.1867 15.1667 13.78 12.5733 13.78 9.38667C13.78 6.20001 11.1867 3.60001 8 3.60001ZM8.5 9.16667C8.5 9.44001 8.27333 9.66667 8 9.66667C7.72667 9.66667 7.5 9.44001 7.5 9.16667V5.83334C7.5 5.56001 7.72667 5.33334 8 5.33334C8.27333 5.33334 8.5 5.56001 8.5 5.83334V9.16667Z" fill="#5B626D" fill-opacity="0.4"/>
<path d="M9.92667 2.79999H6.07334C5.80667 2.79999 5.59334 2.58666 5.59334 2.31999C5.59334 2.05333 5.80667 1.83333 6.07334 1.83333H9.92667C10.1933 1.83333 10.4067 2.04666 10.4067 2.31333C10.4067 2.57999 10.1933 2.79999 9.92667 2.79999Z" fill="#5B626D" fill-opacity="0.4"/>
</svg>
