<svg width="14" height="15" viewBox="0 0 14 15" fill="none" xmlns="http://www.w3.org/2000/svg">
<path d="M5.34331 6.65335C5.28497 6.64752 5.21497 6.64752 5.15081 6.65335C3.76247 6.60669 2.65997 5.46919 2.65997 4.06919C2.65997 2.64002 3.81497 1.47919 5.24997 1.47919C6.67914 1.47919 7.83997 2.64002 7.83997 4.06919C7.83414 5.46919 6.73164 6.60669 5.34331 6.65335Z" stroke="#2D9CEC" stroke-linecap="round" stroke-linejoin="round"/>
<path d="M9.57248 2.64581C10.7041 2.64581 11.6141 3.56165 11.6141 4.68748C11.6141 5.78998 10.7391 6.68831 9.64831 6.72915C9.60164 6.72331 9.54914 6.72331 9.49664 6.72915" stroke="#2D9CEC" stroke-linecap="round" stroke-linejoin="round"/>
<path d="M2.42667 8.80581C1.015 9.75081 1.015 11.2908 2.42667 12.23C4.03084 13.3033 6.66167 13.3033 8.26584 12.23C9.6775 11.285 9.6775 9.74498 8.26584 8.80581C6.6675 7.73831 4.03667 7.73831 2.42667 8.80581Z" stroke="#2D9CEC" stroke-linecap="round" stroke-linejoin="round"/>
<path d="M10.6984 11.9792C11.1184 11.8917 11.515 11.7225 11.8417 11.4717C12.7517 10.7892 12.7517 9.66335 11.8417 8.98085C11.5209 8.73585 11.13 8.57252 10.7159 8.47919" stroke="#2D9CEC" stroke-linecap="round" stroke-linejoin="round"/>
</svg>
