<svg width="20" height="20" viewBox="0 0 20 20" fill="none" xmlns="http://www.w3.org/2000/svg">
<path fill-rule="evenodd" clip-rule="evenodd" d="M17.6935 13.7042L18.9292 17.3004C19.0897 17.7674 18.9724 18.2744 18.6234 18.6234C18.3777 18.8692 18.0537 19 17.7206 19C17.5804 19 17.4387 18.9768 17.3004 18.9293L13.7041 17.6936C12.5027 18.288 11.1635 18.6023 9.81604 18.6044H9.80219C7.4868 18.6044 5.2984 17.7069 3.63818 16.0763C1.97441 14.4421 1.03788 12.2646 1.00114 9.94482C0.981912 8.73003 1.20561 7.55008 1.66605 6.43774C2.11015 5.36487 2.75347 4.40275 3.57813 3.57813C4.40276 2.7535 5.36488 2.11018 6.43774 1.66605C7.55008 1.20561 8.72943 0.981662 9.94482 1.00117C12.2646 1.03798 14.4422 1.97447 16.0762 3.63824C17.7101 5.3017 18.6079 7.49576 18.6043 9.81615C18.6022 11.1636 18.2879 12.5028 17.6935 13.7042ZM17.6471 17.92C17.7575 17.9579 17.8333 17.9042 17.8687 17.8688C17.9042 17.8335 17.9579 17.7576 17.9199 17.6472L16.6105 13.8365C16.5626 13.697 16.5745 13.5439 16.6435 13.4135C17.2261 12.3123 17.5351 11.0677 17.5371 9.81449C17.5436 5.60988 14.1301 2.13493 9.92788 2.06831C7.81302 2.03487 5.82655 2.83897 4.33272 4.33276C2.8389 5.82658 2.03467 7.81365 2.06817 9.92791C2.13476 14.1302 5.61143 17.5439 9.81436 17.5372C11.0676 17.5353 12.3121 17.2262 13.4134 16.6436C13.4911 16.6025 13.5768 16.5816 13.663 16.5816C13.7214 16.5816 13.78 16.5913 13.8364 16.6106L17.6471 17.92Z" fill="#2D9CEC"/>
<path d="M9.71569 13.7529C9.43659 13.7529 9.16919 13.9983 9.18209 14.2865C9.19503 14.5756 9.41655 14.8201 9.71569 14.8201C9.9948 14.8201 10.2622 14.5746 10.2493 14.2865C10.2364 13.9973 10.0148 13.7529 9.71569 13.7529Z" fill="#2D9CEC"/>
<path d="M9.71537 5.48853C8.2515 5.48853 7.06055 6.67948 7.06055 8.14335C7.06055 8.43803 7.29947 8.67695 7.59415 8.67695C7.88883 8.67695 8.12775 8.43803 8.12775 8.14335C8.12775 7.26796 8.83998 6.55573 9.71537 6.55573C10.5908 6.55573 11.303 7.26796 11.303 8.14335C11.303 9.01874 10.5908 9.73097 9.71537 9.73097C9.42069 9.73097 9.18177 9.96989 9.18177 10.2646V12.4409C9.18177 12.7356 9.42069 12.9745 9.71537 12.9745C10.0101 12.9745 10.249 12.7356 10.249 12.4409V10.7443C11.458 10.4966 12.3702 9.42451 12.3702 8.14335C12.3702 6.67948 11.1792 5.48853 9.71537 5.48853Z" fill="#2D9CEC"/>
</svg>
