<svg width="16" height="17" viewBox="0 0 16 17" fill="none" xmlns="http://www.w3.org/2000/svg">
<g opacity="0.4">
<path d="M12.9736 4.4903C11.6779 3.84241 9.95807 3.5 8 3.5C6.04193 3.5 4.32208 3.84241 3.02637 4.4903C1.73859 5.13422 1 6.04895 1 7V10C1 10.951 1.73859 11.8658 3.02637 12.5097C4.32208 13.1576 6.04193 13.5 8 13.5C9.95807 13.5 11.6779 13.1576 12.9736 12.5097C14.2614 11.8658 15 10.951 15 10V7C15 6.04895 14.2614 5.13422 12.9736 4.4903ZM7.5 10.4915V12.4909C6.31345 12.4521 5.31085 12.2767 4.5 12.0226V10.0653C5.47948 10.3263 6.48661 10.4693 7.5 10.4915ZM8.5 10.4915C9.51339 10.4693 10.5205 10.3263 11.5 10.0653V12.0226C10.6891 12.2767 9.68655 12.4521 8.5 12.4909V10.4915ZM2 10V8.84567C2.31462 9.10688 2.65916 9.32979 3.02637 9.5097C3.17834 9.58569 3.33667 9.6571 3.5 9.72461V11.6267C2.51083 11.1353 2 10.5184 2 10ZM12.5 11.6267V9.72461C12.6633 9.6571 12.8217 9.58569 12.9736 9.5097C13.3408 9.32979 13.6854 9.10688 14 8.84567V10C14 10.5184 13.4892 11.1353 12.5 11.6267Z" fill="#040E20"/>
</g>
</svg>
