<svg width="24" height="24" viewBox="0 0 24 24" fill="none" xmlns="http://www.w3.org/2000/svg">
<path d="M23 12C23 11.2688 22.5601 10.6388 21.9313 10.3596C21.5908 8.27686 20.6202 6.3868 19.1167 4.88325C17.6131 3.3797 15.723 2.40919 13.6403 2.06874C13.3611 1.43988 12.7311 1 11.9999 1C11.2687 1 10.6387 1.43988 10.3595 2.06874C8.27679 2.40923 6.38671 3.37974 4.88315 4.88325C3.37959 6.38684 2.40898 8.27694 2.06858 10.3597C1.43984 10.6389 1 11.2688 1 11.9999C1 12.4792 1.18658 12.9297 1.52544 13.2685C1.68473 13.4278 1.86885 13.553 2.06879 13.6415C2.40941 15.7238 3.37989 17.6135 4.88319 19.1168C6.38675 20.6203 8.27683 21.5908 10.3595 21.9313C10.6388 22.5601 11.2688 23 12 23C12.7314 23 13.3616 22.5598 13.6406 21.9307C15.0084 21.7069 17.5 20.5 18.4597 19.7115C18.6091 19.6149 18.6519 19.4153 18.5552 19.2659C18.4585 19.1164 18.2589 19.0737 18.1096 19.1704C17.175 19.9675 14.9769 21.0218 13.793 21.249C13.7934 21.2346 13.7942 21.2203 13.7942 21.2058V17.6157C13.7942 17.4636 13.775 17.316 13.7393 17.175C15.3556 16.6322 16.6322 15.3556 17.175 13.7392C17.3161 13.775 17.4637 13.7942 17.6157 13.7942H21.2059C21.2205 13.7942 21.235 13.7934 21.2496 13.793C20.8471 15.881 19.7431 17.7772 18.1096 19.1704C17.9742 19.2859 17.958 19.4893 18.0735 19.6247C18.1372 19.6995 18.2278 19.7378 18.3189 19.7378C18.3928 19.7378 18.4671 19.7125 18.5278 19.6608C20.3442 18.1117 21.5475 15.9798 21.9312 13.6405C22.56 13.3613 23 12.7313 23 12ZM18.6609 5.33903C20.0061 6.68419 20.8952 8.3597 21.2493 10.2069C21.2348 10.2066 21.2204 10.2058 21.2058 10.2058H17.6157C17.4636 10.2058 17.316 10.225 17.175 10.2607C16.6322 8.64438 15.3556 7.36779 13.7392 6.825C13.775 6.68393 13.7941 6.53633 13.7941 6.3843V2.7942C13.7941 2.77963 13.7933 2.76519 13.793 2.75071C15.6402 3.10482 17.3157 3.99386 18.6609 5.33903ZM10.8503 2.7942C10.8503 2.16026 11.366 1.64454 11.9999 1.64454C12.6338 1.64454 13.1496 2.16026 13.1496 2.7942V6.38435C13.1496 7.01828 12.6338 7.534 11.9999 7.534C11.366 7.534 10.8503 7.01828 10.8503 6.38435V2.7942ZM1.64455 11.9999C1.64455 11.3661 2.16019 10.8505 2.79399 10.8505H4.82475C5.00278 10.8505 5.14703 10.7062 5.14703 10.5282C5.14703 10.3502 5.00278 10.2059 4.82475 10.2059H2.79399C2.77943 10.2059 2.76503 10.2067 2.75055 10.2071C3.10467 8.35979 3.99371 6.68423 5.33893 5.33907C6.6841 3.99391 8.35963 3.10487 10.2068 2.75071C10.2065 2.76519 10.2057 2.77963 10.2057 2.7942V6.38435C10.2057 6.53637 10.2249 6.68397 10.2606 6.82504C8.64426 7.36784 7.36763 8.64446 6.82487 10.2608C6.6838 10.2251 6.53616 10.2059 6.38413 10.2059H4.82475C4.64673 10.2059 4.50248 10.3502 4.50248 10.5282C4.50248 10.7062 4.64673 10.8505 4.82475 10.8505H6.38413C7.0182 10.8505 7.53405 11.3661 7.53405 11.9999C7.53405 12.6339 7.0182 13.1498 6.38413 13.1498H2.79399C2.48715 13.1498 2.19852 13.0301 1.98118 12.8128C1.76409 12.5957 1.64455 12.307 1.64455 11.9999ZM5.33889 18.661C3.99376 17.3159 3.10471 15.6404 2.75055 13.7933C2.76503 13.7936 2.77943 13.7943 2.79395 13.7943H6.38409C6.53616 13.7943 6.6838 13.7752 6.82492 13.7394C7.36771 15.3557 8.64431 16.6322 10.2606 17.175C10.2249 17.316 10.2057 17.4636 10.2057 17.6157V21.2058C10.2057 21.2204 10.2065 21.2348 10.2068 21.2493C8.35959 20.8952 6.68406 20.0061 5.33889 18.661ZM13.1496 21.2058C13.1496 21.8397 12.6338 22.3554 11.9999 22.3554C11.366 22.3554 10.8503 21.8397 10.8503 21.2058V17.6157C10.8503 16.9818 11.366 16.466 11.9999 16.466C12.6338 16.466 13.1496 16.9818 13.1496 17.6157V21.2058ZM13.4674 16.5853C13.1424 16.1238 12.606 15.8215 11.9999 15.8215C11.3939 15.8215 10.8574 16.1238 10.5324 16.5853C9.05342 16.1126 7.88735 14.9466 7.41464 13.4676C7.87622 13.1426 8.1786 12.606 8.1786 11.9999C8.1786 11.3939 7.87618 10.8575 7.41459 10.5325C7.88731 9.05349 9.05338 7.88742 10.5324 7.41472C10.8574 7.87621 11.3939 8.17854 12 8.17854C12.606 8.17854 13.1424 7.87621 13.4675 7.41472C14.9465 7.88742 16.1126 9.05345 16.5853 10.5325C16.1238 10.8575 15.8215 11.3939 15.8215 12C15.8215 12.606 16.1239 13.1425 16.5853 13.4675C16.1125 14.9466 14.9464 16.1126 13.4674 16.5853ZM21.2058 13.1497H17.6156C16.9817 13.1497 16.466 12.6339 16.466 12C16.466 11.3662 16.9817 10.8504 17.6156 10.8504H21.2058C21.8397 10.8504 22.3555 11.3661 22.3555 12C22.3555 12.634 21.8397 13.1497 21.2058 13.1497Z" fill="white"/>
</svg>
