<?xml version="1.0" encoding="UTF-8"?>
<svg width="26px" height="23px" viewBox="0 0 26 23" version="1.1" xmlns="http://www.w3.org/2000/svg" xmlns:xlink="http://www.w3.org/1999/xlink">
    <!-- Generator: Sketch 63.1 (92452) - https://sketch.com -->
    <title>Fill 1</title>
    <desc>Created with Sketch.</desc>
    <g id="Admin-Spa" stroke="none" stroke-width="1" fill="none" fill-rule="evenodd">
        <g id="Khách-Hàng-Chụp-ảnh-trước" transform="translate(-334.000000, -53.000000)" fill="#FFFFFF">
            <path d="M342.840217,64.5 C342.840217,66.8 344.66041,68.5890714 347.000418,68.5890714 C349.33959,68.5890714 351.159783,66.8 351.159783,64.5 L348.950146,64.5 L352.200251,61.3054643 L355.450355,64.5 L353.499791,64.5 C353.499791,68.0773214 350.639967,70.88825 347.000418,70.88825 C343.360033,70.88825 340.500209,68.0773214 340.500209,64.5 L342.840217,64.5 Z M357.400084,55.5554643 L353.239883,55.5554643 L350.90071,53 L343.100125,53 L340.760117,55.5554643 L336.599916,55.5554643 C335.170004,55.5554643 334,56.7054643 334,58.1109286 L334,73.4445357 C334,74.85 335.170004,76 336.599916,76 L357.400084,76 C358.829996,76 360,74.85 360,73.4445357 L360,58.1109286 C360,56.7054643 358.829996,55.5554643 357.400084,55.5554643 L357.400084,55.5554643 Z" id="Fill-1"></path>
        </g>
    </g>
</svg>