<svg width="25" height="25" viewBox="0 0 25 25" fill="none" xmlns="http://www.w3.org/2000/svg">
<path d="M12.285 11.37C12.185 11.36 12.065 11.36 11.955 11.37C9.575 11.29 7.685 9.34 7.685 6.94C7.685 4.49 9.665 2.5 12.125 2.5C14.575 2.5 16.565 4.49 16.565 6.94C16.555 9.34 14.665 11.29 12.285 11.37Z" stroke="#6A7892" stroke-linecap="round" stroke-linejoin="round"/>
<path d="M7.28497 15.06C4.86497 16.68 4.86497 19.32 7.28497 20.93C10.035 22.77 14.545 22.77 17.295 20.93C19.715 19.31 19.715 16.67 17.295 15.06C14.555 13.23 10.045 13.23 7.28497 15.06Z" stroke="#6A7892" stroke-linecap="round" stroke-linejoin="round"/>
</svg>
