<svg width="25" height="25" viewBox="0 0 25 25" fill="none" xmlns="http://www.w3.org/2000/svg">
<path d="M10.875 16C10.465 16 10.125 16.34 10.125 16.75V18.25C10.125 18.66 10.465 19 10.875 19C11.285 19 11.625 18.66 11.625 18.25V16.75C11.625 16.34 11.285 16 10.875 16Z" fill="#0D2A5C"/>
<path d="M22.875 21.75H21.875V10.48C21.875 9.85997 21.595 9.27997 21.105 8.89997L14.105 3.45997C13.385 2.88997 12.365 2.88997 11.645 3.45997L4.645 8.89997C4.155 9.27997 3.875 9.85997 3.875 10.47L3.825 21.75H2.875C2.465 21.75 2.125 22.08 2.125 22.5C2.125 22.91 2.465 23.25 2.875 23.25H22.875C23.285 23.25 23.625 22.91 23.625 22.5C23.625 22.08 23.285 21.75 22.875 21.75ZM11.375 7.24997H14.375C14.785 7.24997 15.125 7.58997 15.125 7.99997C15.125 8.40997 14.785 8.74997 14.375 8.74997H11.375C10.965 8.74997 10.625 8.40997 10.625 7.99997C10.625 7.58997 10.965 7.24997 11.375 7.24997ZM17.875 21.75H7.875V13C7.875 12.17 8.545 11.5 9.375 11.5H16.375C17.205 11.5 17.875 12.17 17.875 13V21.75Z" fill="#0D2A5C"/>
</svg>
