<svg width="25" height="25" viewBox="0 0 25 25" fill="none" xmlns="http://www.w3.org/2000/svg">
<path d="M17.125 4.06V2.5C17.125 2.09 16.785 1.75 16.375 1.75C15.965 1.75 15.625 2.09 15.625 2.5V4H9.12499V2.5C9.12499 2.09 8.78499 1.75 8.37499 1.75C7.96499 1.75 7.62499 2.09 7.62499 2.5V4.06C4.92499 4.31 3.61499 5.92 3.41499 8.31C3.39499 8.6 3.63499 8.84 3.91499 8.84H20.835C21.125 8.84 21.365 8.59 21.335 8.31C21.135 5.92 19.825 4.31 17.125 4.06Z" fill="#0D2A5C"/>
<path d="M20.375 10.3401H4.375C3.825 10.3401 3.375 10.7901 3.375 11.3401V17.5001C3.375 20.5001 4.875 22.5001 8.375 22.5001H16.375C19.875 22.5001 21.375 20.5001 21.375 17.5001V11.3401C21.375 10.7901 20.925 10.3401 20.375 10.3401ZM15.215 15.4901L14.715 16.0001H14.705L11.675 19.0301C11.545 19.1601 11.275 19.3001 11.085 19.3201L9.735 19.5201C9.245 19.5901 8.905 19.2401 8.975 18.7601L9.165 17.4001C9.195 17.2101 9.325 16.9501 9.455 16.8101L12.495 13.7801L12.995 13.2701C13.325 12.9401 13.695 12.7001 14.095 12.7001C14.435 12.7001 14.805 12.8601 15.215 13.2701C16.115 14.1701 15.825 14.8801 15.215 15.4901Z" fill="#0D2A5C"/>
</svg>
